<?xml version="1.0" encoding="UTF-8"?> <svg xmlns="http://www.w3.org/2000/svg" width="1192" height="575" viewBox="0 0 1192 575" fill="none"><path fill-rule="evenodd" clip-rule="evenodd" d="M765.494 157.771C781.975 157.771 795.339 144.41 795.339 127.928C795.339 111.445 781.975 98.0841 765.494 98.0841C749.012 98.0841 735.649 111.445 735.649 127.928C735.649 144.41 749.012 157.771 765.494 157.771ZM765.494 170.561C789.04 170.561 808.124 151.473 808.124 127.928C808.124 104.382 789.04 85.2939 765.494 85.2939C741.948 85.2939 722.857 104.382 722.857 127.928C722.857 151.473 741.948 170.561 765.494 170.561ZM537.223 270.908C531.036 270.908 525.274 269.903 519.938 267.892C514.678 265.804 510.077 262.904 506.132 259.191C502.265 255.402 499.249 250.955 497.084 245.85C494.918 240.746 493.835 235.177 493.835 229.145C493.835 223.112 494.918 217.544 497.084 212.439C499.249 207.335 502.304 202.927 506.248 199.214C510.193 195.425 514.794 192.524 520.054 190.514C525.313 188.425 531.074 187.381 537.339 187.381C543.99 187.381 550.061 188.541 555.552 190.862C561.044 193.104 565.684 196.469 569.474 200.954L559.729 210.119C556.79 206.948 553.503 204.589 549.868 203.043C546.233 201.419 542.289 200.606 538.035 200.606C533.781 200.606 529.876 201.303 526.318 202.695C522.838 204.087 519.783 206.059 517.153 208.611C514.601 211.163 512.59 214.18 511.121 217.66C509.729 221.14 509.033 224.969 509.033 229.145C509.033 233.321 509.729 237.15 511.121 240.63C512.59 244.11 514.601 247.126 517.153 249.679C519.783 252.231 522.838 254.203 526.318 255.595C529.876 256.987 533.781 257.683 538.035 257.683C542.289 257.683 546.233 256.91 549.868 255.363C553.503 253.739 556.79 251.303 559.729 248.054L569.474 257.335C565.684 261.744 561.044 265.108 555.552 267.428C550.061 269.748 543.952 270.908 537.223 270.908ZM598.558 234.716V257.105H644.381V269.751H583.476V188.544H642.757V201.189H598.558V222.303H637.769V234.716H598.558ZM661.194 269.751V188.544H694.605C701.797 188.544 707.946 189.704 713.05 192.024C718.232 194.344 722.215 197.67 724.999 202.001C727.783 206.332 729.176 211.475 729.176 217.43C729.176 223.385 727.783 228.528 724.999 232.859C722.215 237.19 718.232 240.516 713.05 242.836C707.946 245.156 701.797 246.317 694.605 246.317H676.275V269.751H661.194ZM693.909 233.555H676.275V201.305H693.909C700.56 201.305 705.548 202.697 708.874 205.481C712.277 208.265 713.978 212.248 713.978 217.43C713.978 222.535 712.277 226.518 708.874 229.379C705.548 232.163 700.56 233.555 693.909 233.555ZM758.356 269.751V201.305H731.557V188.544H800.235V201.305H773.321V269.751H758.356ZM431.887 188.544H414.486L441.98 228.103L412.629 269.751H430.031L451.029 240.168L472.142 269.751H490.008L460.541 227.523L487.804 188.544H470.17L451.029 215.69L431.887 188.544ZM360.76 257.105V234.716H399.972V222.303H360.76V201.189H404.96V188.544H345.679V269.751H406.584V257.105H360.76ZM290.793 201.305V269.751H305.758V201.305H332.672V188.544H263.995V201.305H290.793ZM235.879 188.544H250.96V269.751H235.879V234.948H193.883V269.751H178.802V188.544H193.883V222.071H235.879V188.544ZM83.527 188.544V269.751H97.5642L141.184 212.21V269.751H156.033V188.544H141.996L98.3763 246.201V188.544H83.527ZM765.49 142.719C773.66 142.719 780.282 136.096 780.282 127.927C780.282 119.759 773.66 113.136 765.49 113.136C757.32 113.136 750.699 119.759 750.699 127.927C750.699 136.096 757.32 142.719 765.49 142.719Z" fill="#0047AB"></path><mask id="path-2-outside-1_110_3453" maskUnits="userSpaceOnUse" x="83.5711" y="294.045" width="1023" height="194" fill="black"><rect fill="white" x="83.5711" y="294.045" width="1023" height="194"></rect><path fill-rule="evenodd" clip-rule="evenodd" d="M84.5711 296.206V377.412H99.4203V308.967H141.532V377.412H156.381V296.206H84.5711ZM199.465 375.44C204.802 377.528 210.641 378.572 216.983 378.572C223.247 378.572 229.009 377.528 234.268 375.44C239.604 373.352 244.245 370.452 248.189 366.739C252.134 363.027 255.188 358.619 257.354 353.514C259.519 348.41 260.602 342.841 260.602 336.809C260.602 330.776 259.519 325.247 257.354 320.22C255.188 315.115 252.134 310.707 248.189 306.994C244.245 303.205 239.604 300.266 234.268 298.178C229.009 296.089 223.208 295.045 216.867 295.045C210.602 295.045 204.802 296.089 199.465 298.178C194.129 300.266 189.488 303.205 185.544 306.994C181.6 310.707 178.545 315.115 176.379 320.22C174.214 325.247 173.131 330.776 173.131 336.809C173.131 342.841 174.214 348.41 176.379 353.514C178.545 358.541 181.6 362.95 185.544 366.739C189.488 370.452 194.129 373.352 199.465 375.44ZM228.236 363.259C224.755 364.651 220.966 365.347 216.867 365.347C212.768 365.347 208.978 364.651 205.498 363.259C202.017 361.867 199.001 359.895 196.449 357.343C193.897 354.713 191.886 351.658 190.416 348.178C189.024 344.698 188.328 340.908 188.328 336.809C188.328 332.633 189.024 328.843 190.416 325.44C191.886 321.96 193.897 318.943 196.449 316.391C199.078 313.762 202.095 311.751 205.498 310.359C208.978 308.967 212.768 308.271 216.867 308.271C220.966 308.271 224.755 308.967 228.236 310.359C231.716 311.751 234.732 313.762 237.284 316.391C239.837 318.943 241.809 321.96 243.201 325.44C244.67 328.843 245.405 332.633 245.405 336.809C245.405 340.985 244.67 344.814 243.201 348.294C241.809 351.697 239.837 354.713 237.284 357.343C234.732 359.895 231.716 361.867 228.236 363.259ZM345.273 343.189L365.746 377.412H381.941H383.147H397.486L405.528 358.619H446.144L454.215 377.412H469.993L433.333 296.206H418.484L382.458 376.265L357.735 335.127L381.407 296.206H365.398L345.432 330.196H331.407V296.206H316.674V330.196H302.436L282.567 296.206H266.558L290.283 335.039L264.818 377.412H282.219L302.793 343.189H316.674V377.412H331.407V343.189H345.273ZM441.062 346.786L425.798 311.246L410.591 346.786H441.062ZM515.856 296.206H482.445V377.412H497.527V353.978H515.856C523.049 353.978 529.197 352.818 534.302 350.498C539.484 348.178 543.467 344.852 546.251 340.521C549.035 336.19 550.427 331.047 550.427 325.092C550.427 319.137 549.035 313.994 546.251 309.663C543.467 305.332 539.484 302.006 534.302 299.686C529.197 297.366 523.049 296.206 515.856 296.206ZM497.527 341.217H515.16C521.811 341.217 526.8 339.825 530.125 337.041C533.528 334.179 535.23 330.196 535.23 325.092C535.23 319.91 533.528 315.927 530.125 313.143C526.8 310.359 521.811 308.967 515.16 308.967H497.527V341.217ZM621.771 342.609V377.412H636.853V296.206H621.771V329.732H579.776V296.206H564.695V377.412H579.776V342.609H621.771ZM700.7 296.206H685.85L649.307 377.412H664.853L672.894 358.619H713.51L721.581 377.412H737.359L700.7 296.206ZM708.428 346.786L693.165 311.246L677.958 346.786H708.428ZM792.949 354.79V377.412H807.798V296.206H774.04C767.156 296.206 761.163 297.404 756.058 299.802C750.954 302.122 747.009 305.525 744.225 310.011C741.441 314.419 740.049 319.755 740.049 326.02C740.049 332.053 741.363 337.234 743.993 341.565C746.623 345.819 750.374 349.106 755.246 351.426C756.009 351.772 756.794 352.091 757.601 352.383L740.281 377.412H756.174L771.299 354.77C771.82 354.784 772.347 354.79 772.879 354.79H792.949ZM792.949 342.493V308.967H774.504C768.316 308.967 763.56 310.397 760.234 313.259C756.986 316.043 755.362 320.22 755.362 325.788C755.362 331.124 756.909 335.262 760.002 338.201C763.173 341.063 767.814 342.493 773.924 342.493H792.949ZM84.5711 404.094V485.301H121.114C131.323 485.301 139.212 483.136 144.78 478.805C150.426 474.396 153.249 468.209 153.249 460.243C153.249 452.509 150.697 446.631 145.592 442.61C140.565 438.511 133.179 436.461 123.434 436.461H99.4203V416.507H147.796V404.094H84.5711ZM120.302 473.7H99.4203V448.062H120.302C132.135 448.062 138.052 452.238 138.052 460.591C138.052 464.845 136.543 468.093 133.527 470.336C130.511 472.579 126.103 473.7 120.302 473.7ZM169.763 404.094V485.301H230.668V472.656H184.844V450.266H224.056V437.853H184.844V416.739H229.044V404.094H169.763ZM253.426 484.141C259.072 485.688 265.22 486.461 271.872 486.461C279.838 486.461 286.527 485.417 291.941 483.329C297.355 481.241 301.454 478.379 304.238 474.744C307.1 471.032 308.531 466.856 308.531 462.215C308.531 457.884 307.448 454.211 305.282 451.194C303.194 448.101 300.371 445.742 296.814 444.118C296.088 443.779 295.346 443.476 294.586 443.208C294.87 443.055 295.148 442.894 295.421 442.726C298.515 440.87 300.874 438.433 302.498 435.417C304.2 432.323 305.05 428.959 305.05 425.324C305.05 421.457 304.161 418.132 302.382 415.347C300.603 412.563 298.167 410.282 295.073 408.503C291.98 406.647 288.461 405.293 284.517 404.442C280.65 403.514 276.589 403.05 272.336 403.05C267.231 403.05 262.127 403.669 257.022 404.906C251.995 406.067 247.393 407.729 243.217 409.895L247.509 421.844C249.83 420.606 252.343 419.524 255.05 418.596C257.834 417.668 260.735 416.972 263.751 416.507C266.767 415.966 269.667 415.695 272.452 415.695C275.622 415.695 278.523 416.082 281.152 416.855C283.782 417.629 285.87 418.905 287.417 420.684C289.041 422.385 289.853 424.667 289.853 427.528C289.853 430.854 288.616 433.368 286.141 435.069C283.666 436.77 280.031 437.621 275.236 437.621H256.094V449.454H276.048C279.683 449.454 282.776 449.88 285.329 450.73C287.881 451.581 289.853 452.896 291.245 454.675C292.637 456.453 293.333 458.619 293.333 461.171C293.333 465.038 291.593 468.132 288.113 470.452C284.633 472.695 279.257 473.816 271.988 473.816C266.419 473.816 261.276 473.159 256.558 471.844C251.84 470.452 247.78 468.518 244.377 466.044L239.505 477.529C243.217 480.313 247.857 482.517 253.426 484.141ZM345.837 483.329C351.173 485.417 357.012 486.461 363.354 486.461C369.619 486.461 375.381 485.417 380.64 483.329C385.976 481.241 390.617 478.341 394.561 474.628C398.505 470.916 401.56 466.508 403.726 461.403C405.891 456.299 406.974 450.73 406.974 444.698C406.974 438.665 405.891 433.136 403.726 428.108C401.56 423.004 398.505 418.596 394.561 414.883C390.617 411.094 385.976 408.155 380.64 406.067C375.381 403.978 369.58 402.934 363.238 402.934C356.974 402.934 351.173 403.978 345.837 406.067C340.5 408.155 335.86 411.094 331.916 414.883C327.971 418.596 324.916 423.004 322.751 428.108C320.585 433.136 319.503 438.665 319.503 444.698C319.503 450.73 320.585 456.299 322.751 461.403C324.916 466.43 327.971 470.839 331.916 474.628C335.86 478.341 340.5 481.241 345.837 483.329ZM374.607 471.148C371.127 472.54 367.337 473.236 363.238 473.236C359.139 473.236 355.35 472.54 351.869 471.148C348.389 469.756 345.373 467.784 342.821 465.232C340.268 462.602 338.257 459.547 336.788 456.067C335.396 452.586 334.7 448.797 334.7 444.698C334.7 440.521 335.396 436.732 336.788 433.329C338.257 429.849 340.268 426.832 342.821 424.28C345.45 421.651 348.466 419.64 351.869 418.248C355.35 416.855 359.139 416.159 363.238 416.159C367.337 416.159 371.127 416.855 374.607 418.248C378.087 419.64 381.104 421.651 383.656 424.28C386.208 426.832 388.18 429.849 389.572 433.329C391.042 436.732 391.777 440.521 391.777 444.698C391.777 448.874 391.042 452.703 389.572 456.183C388.18 459.586 386.208 462.602 383.656 465.232C381.104 467.784 378.087 469.756 374.607 471.148ZM495.574 404.094H423.764V485.301H438.613V416.855H480.724V485.301H495.574V404.094ZM559.539 404.094H544.69L508.147 485.301H523.692L531.734 466.508H572.35L580.421 485.301H596.198L559.539 404.094ZM567.268 454.675L552.004 419.135L536.797 454.675H567.268ZM627.588 483.445C632.925 485.456 638.686 486.461 644.874 486.461C651.602 486.461 657.712 485.301 663.203 482.981C668.694 480.661 673.335 477.297 677.124 472.888L667.379 463.607C664.441 466.856 661.154 469.292 657.519 470.916C653.884 472.463 649.939 473.236 645.686 473.236C641.432 473.236 637.526 472.54 633.969 471.148C630.488 469.756 627.434 467.784 624.804 465.232C622.252 462.679 620.241 459.663 618.771 456.183C617.379 452.703 616.683 448.874 616.683 444.698C616.683 440.521 617.379 436.693 618.771 433.213C620.241 429.733 622.252 426.716 624.804 424.164C627.434 421.612 630.488 419.64 633.969 418.248C637.526 416.855 641.432 416.159 645.686 416.159C649.939 416.159 653.884 416.972 657.519 418.596C661.154 420.142 664.441 422.501 667.379 425.672L677.124 416.507C673.335 412.022 668.694 408.657 663.203 406.415C657.712 404.094 651.641 402.934 644.99 402.934C638.725 402.934 632.963 403.978 627.704 406.067C622.445 408.077 617.843 410.978 613.899 414.767C609.955 418.48 606.9 422.888 604.734 427.992C602.569 433.097 601.486 438.665 601.486 444.698C601.486 450.73 602.569 456.299 604.734 461.403C606.9 466.508 609.916 470.955 613.783 474.744C617.727 478.457 622.329 481.357 627.588 483.445ZM748.204 450.498V485.301H763.285V404.094H748.204V437.621H706.208V404.094H691.127V485.301H706.208V450.498H748.204ZM806.25 483.329C811.587 485.417 817.426 486.461 823.768 486.461C830.032 486.461 835.794 485.417 841.053 483.329C846.39 481.241 851.03 478.341 854.975 474.628C858.919 470.916 861.974 466.508 864.139 461.403C866.305 456.299 867.388 450.73 867.388 444.698C867.388 438.665 866.305 433.136 864.139 428.108C861.974 423.004 858.919 418.596 854.975 414.883C851.03 411.094 846.39 408.155 841.053 406.067C835.794 403.978 829.994 402.934 823.652 402.934C817.387 402.934 811.587 403.978 806.25 406.067C800.914 408.155 796.274 411.094 792.329 414.883C788.385 418.596 785.33 423.004 783.165 428.108C780.999 433.136 779.916 438.665 779.916 444.698C779.916 450.73 780.999 456.299 783.165 461.403C785.33 466.43 788.385 470.839 792.329 474.628C796.274 478.341 800.914 481.241 806.25 483.329ZM835.021 471.148C831.541 472.54 827.751 473.236 823.652 473.236C819.553 473.236 815.763 472.54 812.283 471.148C808.803 469.756 805.786 467.784 803.234 465.232C800.682 462.602 798.671 459.547 797.202 456.067C795.81 452.586 795.113 448.797 795.113 444.698C795.113 440.521 795.81 436.732 797.202 433.329C798.671 429.849 800.682 426.832 803.234 424.28C805.864 421.651 808.88 419.64 812.283 418.248C815.763 416.855 819.553 416.159 823.652 416.159C827.751 416.159 831.541 416.855 835.021 418.248C838.501 419.64 841.517 421.651 844.07 424.28C846.622 426.832 848.594 429.849 849.986 433.329C851.456 436.732 852.19 440.521 852.19 444.698C852.19 448.874 851.456 452.703 849.986 456.183C848.594 459.586 846.622 462.602 844.07 465.232C841.517 467.784 838.501 469.756 835.021 471.148ZM904.131 483.445C909.467 485.456 915.229 486.461 921.416 486.461C928.145 486.461 934.255 485.301 939.746 482.981C945.237 480.661 949.877 477.297 953.667 472.888L943.922 463.607C940.983 466.856 937.696 469.292 934.061 470.916C930.426 472.463 926.482 473.236 922.228 473.236C917.975 473.236 914.069 472.54 910.511 471.148C907.031 469.756 903.976 467.784 901.347 465.232C898.794 462.679 896.784 459.663 895.314 456.183C893.922 452.703 893.226 448.874 893.226 444.698C893.226 440.521 893.922 436.693 895.314 433.213C896.784 429.733 898.794 426.716 901.347 424.164C903.976 421.612 907.031 419.64 910.511 418.248C914.069 416.855 917.975 416.159 922.228 416.159C926.482 416.159 930.426 416.972 934.061 418.596C937.696 420.142 940.983 422.501 943.922 425.672L953.667 416.507C949.877 412.022 945.237 408.657 939.746 406.415C934.255 404.094 928.184 402.934 921.532 402.934C915.268 402.934 909.506 403.978 904.247 406.067C898.988 408.077 894.386 410.978 890.442 414.767C886.497 418.48 883.442 422.888 881.277 427.992C879.111 433.097 878.029 438.665 878.029 444.698C878.029 450.73 879.111 456.299 881.277 461.403C883.442 466.508 886.459 470.955 890.326 474.744C894.27 478.457 898.872 481.357 904.131 483.445ZM982.911 416.855V485.301H997.876V416.855H1024.79V404.094H956.112V416.855H982.911ZM1052.76 404.094H1037.91V485.301H1072.83C1083.12 485.301 1091.12 482.981 1096.85 478.341C1102.65 473.623 1105.55 466.701 1105.55 457.575C1105.55 448.913 1102.92 442.416 1097.66 438.085C1092.4 433.754 1084.94 431.589 1075.27 431.589H1052.76V404.094ZM1072.14 473.7H1052.76V443.074H1072.14C1078.01 443.074 1082.54 444.272 1085.71 446.67C1088.88 448.99 1090.47 452.703 1090.47 457.807C1090.47 462.989 1088.84 466.933 1085.59 469.64C1082.42 472.347 1077.94 473.7 1072.14 473.7Z"></path></mask><path fill-rule="evenodd" clip-rule="evenodd" d="M84.5711 296.206V377.412H99.4203V308.967H141.532V377.412H156.381V296.206H84.5711ZM199.465 375.44C204.802 377.528 210.641 378.572 216.983 378.572C223.247 378.572 229.009 377.528 234.268 375.44C239.604 373.352 244.245 370.452 248.189 366.739C252.134 363.027 255.188 358.619 257.354 353.514C259.519 348.41 260.602 342.841 260.602 336.809C260.602 330.776 259.519 325.247 257.354 320.22C255.188 315.115 252.134 310.707 248.189 306.994C244.245 303.205 239.604 300.266 234.268 298.178C229.009 296.089 223.208 295.045 216.867 295.045C210.602 295.045 204.802 296.089 199.465 298.178C194.129 300.266 189.488 303.205 185.544 306.994C181.6 310.707 178.545 315.115 176.379 320.22C174.214 325.247 173.131 330.776 173.131 336.809C173.131 342.841 174.214 348.41 176.379 353.514C178.545 358.541 181.6 362.95 185.544 366.739C189.488 370.452 194.129 373.352 199.465 375.44ZM228.236 363.259C224.755 364.651 220.966 365.347 216.867 365.347C212.768 365.347 208.978 364.651 205.498 363.259C202.017 361.867 199.001 359.895 196.449 357.343C193.897 354.713 191.886 351.658 190.416 348.178C189.024 344.698 188.328 340.908 188.328 336.809C188.328 332.633 189.024 328.843 190.416 325.44C191.886 321.96 193.897 318.943 196.449 316.391C199.078 313.762 202.095 311.751 205.498 310.359C208.978 308.967 212.768 308.271 216.867 308.271C220.966 308.271 224.755 308.967 228.236 310.359C231.716 311.751 234.732 313.762 237.284 316.391C239.837 318.943 241.809 321.96 243.201 325.44C244.67 328.843 245.405 332.633 245.405 336.809C245.405 340.985 244.67 344.814 243.201 348.294C241.809 351.697 239.837 354.713 237.284 357.343C234.732 359.895 231.716 361.867 228.236 363.259ZM345.273 343.189L365.746 377.412H381.941H383.147H397.486L405.528 358.619H446.144L454.215 377.412H469.993L433.333 296.206H418.484L382.458 376.265L357.735 335.127L381.407 296.206H365.398L345.432 330.196H331.407V296.206H316.674V330.196H302.436L282.567 296.206H266.558L290.283 335.039L264.818 377.412H282.219L302.793 343.189H316.674V377.412H331.407V343.189H345.273ZM441.062 346.786L425.798 311.246L410.591 346.786H441.062ZM515.856 296.206H482.445V377.412H497.527V353.978H515.856C523.049 353.978 529.197 352.818 534.302 350.498C539.484 348.178 543.467 344.852 546.251 340.521C549.035 336.19 550.427 331.047 550.427 325.092C550.427 319.137 549.035 313.994 546.251 309.663C543.467 305.332 539.484 302.006 534.302 299.686C529.197 297.366 523.049 296.206 515.856 296.206ZM497.527 341.217H515.16C521.811 341.217 526.8 339.825 530.125 337.041C533.528 334.179 535.23 330.196 535.23 325.092C535.23 319.91 533.528 315.927 530.125 313.143C526.8 310.359 521.811 308.967 515.16 308.967H497.527V341.217ZM621.771 342.609V377.412H636.853V296.206H621.771V329.732H579.776V296.206H564.695V377.412H579.776V342.609H621.771ZM700.7 296.206H685.85L649.307 377.412H664.853L672.894 358.619H713.51L721.581 377.412H737.359L700.7 296.206ZM708.428 346.786L693.165 311.246L677.958 346.786H708.428ZM792.949 354.79V377.412H807.798V296.206H774.04C767.156 296.206 761.163 297.404 756.058 299.802C750.954 302.122 747.009 305.525 744.225 310.011C741.441 314.419 740.049 319.755 740.049 326.02C740.049 332.053 741.363 337.234 743.993 341.565C746.623 345.819 750.374 349.106 755.246 351.426C756.009 351.772 756.794 352.091 757.601 352.383L740.281 377.412H756.174L771.299 354.77C771.82 354.784 772.347 354.79 772.879 354.79H792.949ZM792.949 342.493V308.967H774.504C768.316 308.967 763.56 310.397 760.234 313.259C756.986 316.043 755.362 320.22 755.362 325.788C755.362 331.124 756.909 335.262 760.002 338.201C763.173 341.063 767.814 342.493 773.924 342.493H792.949ZM84.5711 404.094V485.301H121.114C131.323 485.301 139.212 483.136 144.78 478.805C150.426 474.396 153.249 468.209 153.249 460.243C153.249 452.509 150.697 446.631 145.592 442.61C140.565 438.511 133.179 436.461 123.434 436.461H99.4203V416.507H147.796V404.094H84.5711ZM120.302 473.7H99.4203V448.062H120.302C132.135 448.062 138.052 452.238 138.052 460.591C138.052 464.845 136.543 468.093 133.527 470.336C130.511 472.579 126.103 473.7 120.302 473.7ZM169.763 404.094V485.301H230.668V472.656H184.844V450.266H224.056V437.853H184.844V416.739H229.044V404.094H169.763ZM253.426 484.141C259.072 485.688 265.22 486.461 271.872 486.461C279.838 486.461 286.527 485.417 291.941 483.329C297.355 481.241 301.454 478.379 304.238 474.744C307.1 471.032 308.531 466.856 308.531 462.215C308.531 457.884 307.448 454.211 305.282 451.194C303.194 448.101 300.371 445.742 296.814 444.118C296.088 443.779 295.346 443.476 294.586 443.208C294.87 443.055 295.148 442.894 295.421 442.726C298.515 440.87 300.874 438.433 302.498 435.417C304.2 432.323 305.05 428.959 305.05 425.324C305.05 421.457 304.161 418.132 302.382 415.347C300.603 412.563 298.167 410.282 295.073 408.503C291.98 406.647 288.461 405.293 284.517 404.442C280.65 403.514 276.589 403.05 272.336 403.05C267.231 403.05 262.127 403.669 257.022 404.906C251.995 406.067 247.393 407.729 243.217 409.895L247.509 421.844C249.83 420.606 252.343 419.524 255.05 418.596C257.834 417.668 260.735 416.972 263.751 416.507C266.767 415.966 269.667 415.695 272.452 415.695C275.622 415.695 278.523 416.082 281.152 416.855C283.782 417.629 285.87 418.905 287.417 420.684C289.041 422.385 289.853 424.667 289.853 427.528C289.853 430.854 288.616 433.368 286.141 435.069C283.666 436.77 280.031 437.621 275.236 437.621H256.094V449.454H276.048C279.683 449.454 282.776 449.88 285.329 450.73C287.881 451.581 289.853 452.896 291.245 454.675C292.637 456.453 293.333 458.619 293.333 461.171C293.333 465.038 291.593 468.132 288.113 470.452C284.633 472.695 279.257 473.816 271.988 473.816C266.419 473.816 261.276 473.159 256.558 471.844C251.84 470.452 247.78 468.518 244.377 466.044L239.505 477.529C243.217 480.313 247.857 482.517 253.426 484.141ZM345.837 483.329C351.173 485.417 357.012 486.461 363.354 486.461C369.619 486.461 375.381 485.417 380.64 483.329C385.976 481.241 390.617 478.341 394.561 474.628C398.505 470.916 401.56 466.508 403.726 461.403C405.891 456.299 406.974 450.73 406.974 444.698C406.974 438.665 405.891 433.136 403.726 428.108C401.56 423.004 398.505 418.596 394.561 414.883C390.617 411.094 385.976 408.155 380.64 406.067C375.381 403.978 369.58 402.934 363.238 402.934C356.974 402.934 351.173 403.978 345.837 406.067C340.5 408.155 335.86 411.094 331.916 414.883C327.971 418.596 324.916 423.004 322.751 428.108C320.585 433.136 319.503 438.665 319.503 444.698C319.503 450.73 320.585 456.299 322.751 461.403C324.916 466.43 327.971 470.839 331.916 474.628C335.86 478.341 340.5 481.241 345.837 483.329ZM374.607 471.148C371.127 472.54 367.337 473.236 363.238 473.236C359.139 473.236 355.35 472.54 351.869 471.148C348.389 469.756 345.373 467.784 342.821 465.232C340.268 462.602 338.257 459.547 336.788 456.067C335.396 452.586 334.7 448.797 334.7 444.698C334.7 440.521 335.396 436.732 336.788 433.329C338.257 429.849 340.268 426.832 342.821 424.28C345.45 421.651 348.466 419.64 351.869 418.248C355.35 416.855 359.139 416.159 363.238 416.159C367.337 416.159 371.127 416.855 374.607 418.248C378.087 419.64 381.104 421.651 383.656 424.28C386.208 426.832 388.18 429.849 389.572 433.329C391.042 436.732 391.777 440.521 391.777 444.698C391.777 448.874 391.042 452.703 389.572 456.183C388.18 459.586 386.208 462.602 383.656 465.232C381.104 467.784 378.087 469.756 374.607 471.148ZM495.574 404.094H423.764V485.301H438.613V416.855H480.724V485.301H495.574V404.094ZM559.539 404.094H544.69L508.147 485.301H523.692L531.734 466.508H572.35L580.421 485.301H596.198L559.539 404.094ZM567.268 454.675L552.004 419.135L536.797 454.675H567.268ZM627.588 483.445C632.925 485.456 638.686 486.461 644.874 486.461C651.602 486.461 657.712 485.301 663.203 482.981C668.694 480.661 673.335 477.297 677.124 472.888L667.379 463.607C664.441 466.856 661.154 469.292 657.519 470.916C653.884 472.463 649.939 473.236 645.686 473.236C641.432 473.236 637.526 472.54 633.969 471.148C630.488 469.756 627.434 467.784 624.804 465.232C622.252 462.679 620.241 459.663 618.771 456.183C617.379 452.703 616.683 448.874 616.683 444.698C616.683 440.521 617.379 436.693 618.771 433.213C620.241 429.733 622.252 426.716 624.804 424.164C627.434 421.612 630.488 419.64 633.969 418.248C637.526 416.855 641.432 416.159 645.686 416.159C649.939 416.159 653.884 416.972 657.519 418.596C661.154 420.142 664.441 422.501 667.379 425.672L677.124 416.507C673.335 412.022 668.694 408.657 663.203 406.415C657.712 404.094 651.641 402.934 644.99 402.934C638.725 402.934 632.963 403.978 627.704 406.067C622.445 408.077 617.843 410.978 613.899 414.767C609.955 418.48 606.9 422.888 604.734 427.992C602.569 433.097 601.486 438.665 601.486 444.698C601.486 450.73 602.569 456.299 604.734 461.403C606.9 466.508 609.916 470.955 613.783 474.744C617.727 478.457 622.329 481.357 627.588 483.445ZM748.204 450.498V485.301H763.285V404.094H748.204V437.621H706.208V404.094H691.127V485.301H706.208V450.498H748.204ZM806.25 483.329C811.587 485.417 817.426 486.461 823.768 486.461C830.032 486.461 835.794 485.417 841.053 483.329C846.39 481.241 851.03 478.341 854.975 474.628C858.919 470.916 861.974 466.508 864.139 461.403C866.305 456.299 867.388 450.73 867.388 444.698C867.388 438.665 866.305 433.136 864.139 428.108C861.974 423.004 858.919 418.596 854.975 414.883C851.03 411.094 846.39 408.155 841.053 406.067C835.794 403.978 829.994 402.934 823.652 402.934C817.387 402.934 811.587 403.978 806.25 406.067C800.914 408.155 796.274 411.094 792.329 414.883C788.385 418.596 785.33 423.004 783.165 428.108C780.999 433.136 779.916 438.665 779.916 444.698C779.916 450.73 780.999 456.299 783.165 461.403C785.33 466.43 788.385 470.839 792.329 474.628C796.274 478.341 800.914 481.241 806.25 483.329ZM835.021 471.148C831.541 472.54 827.751 473.236 823.652 473.236C819.553 473.236 815.763 472.54 812.283 471.148C808.803 469.756 805.786 467.784 803.234 465.232C800.682 462.602 798.671 459.547 797.202 456.067C795.81 452.586 795.113 448.797 795.113 444.698C795.113 440.521 795.81 436.732 797.202 433.329C798.671 429.849 800.682 426.832 803.234 424.28C805.864 421.651 808.88 419.64 812.283 418.248C815.763 416.855 819.553 416.159 823.652 416.159C827.751 416.159 831.541 416.855 835.021 418.248C838.501 419.64 841.517 421.651 844.07 424.28C846.622 426.832 848.594 429.849 849.986 433.329C851.456 436.732 852.19 440.521 852.19 444.698C852.19 448.874 851.456 452.703 849.986 456.183C848.594 459.586 846.622 462.602 844.07 465.232C841.517 467.784 838.501 469.756 835.021 471.148ZM904.131 483.445C909.467 485.456 915.229 486.461 921.416 486.461C928.145 486.461 934.255 485.301 939.746 482.981C945.237 480.661 949.877 477.297 953.667 472.888L943.922 463.607C940.983 466.856 937.696 469.292 934.061 470.916C930.426 472.463 926.482 473.236 922.228 473.236C917.975 473.236 914.069 472.54 910.511 471.148C907.031 469.756 903.976 467.784 901.347 465.232C898.794 462.679 896.784 459.663 895.314 456.183C893.922 452.703 893.226 448.874 893.226 444.698C893.226 440.521 893.922 436.693 895.314 433.213C896.784 429.733 898.794 426.716 901.347 424.164C903.976 421.612 907.031 419.64 910.511 418.248C914.069 416.855 917.975 416.159 922.228 416.159C926.482 416.159 930.426 416.972 934.061 418.596C937.696 420.142 940.983 422.501 943.922 425.672L953.667 416.507C949.877 412.022 945.237 408.657 939.746 406.415C934.255 404.094 928.184 402.934 921.532 402.934C915.268 402.934 909.506 403.978 904.247 406.067C898.988 408.077 894.386 410.978 890.442 414.767C886.497 418.48 883.442 422.888 881.277 427.992C879.111 433.097 878.029 438.665 878.029 444.698C878.029 450.73 879.111 456.299 881.277 461.403C883.442 466.508 886.459 470.955 890.326 474.744C894.27 478.457 898.872 481.357 904.131 483.445ZM982.911 416.855V485.301H997.876V416.855H1024.79V404.094H956.112V416.855H982.911ZM1052.76 404.094H1037.91V485.301H1072.83C1083.12 485.301 1091.12 482.981 1096.85 478.341C1102.65 473.623 1105.55 466.701 1105.55 457.575C1105.55 448.913 1102.92 442.416 1097.66 438.085C1092.4 433.754 1084.94 431.589 1075.27 431.589H1052.76V404.094ZM1072.14 473.7H1052.76V443.074H1072.14C1078.01 443.074 1082.54 444.272 1085.71 446.67C1088.88 448.99 1090.47 452.703 1090.47 457.807C1090.47 462.989 1088.84 466.933 1085.59 469.64C1082.42 472.347 1077.94 473.7 1072.14 473.7Z" fill="#EF5A5C"></path><path d="M84.5711 377.412H83.875V378.108H84.5711V377.412ZM84.5711 296.206V295.509H83.875V296.206H84.5711ZM99.4203 377.412V378.108H100.116V377.412H99.4203ZM99.4203 308.967V308.271H98.7243V308.967H99.4203ZM141.532 308.967H142.228V308.271H141.532V308.967ZM141.532 377.412H140.836V378.108H141.532V377.412ZM156.381 377.412V378.108H157.077V377.412H156.381ZM156.381 296.206H157.077V295.509H156.381V296.206ZM199.465 375.44L199.719 374.792L199.719 374.792L199.465 375.44ZM234.268 375.44L234.014 374.792L234.011 374.793L234.268 375.44ZM248.189 366.739L248.666 367.246L248.666 367.246L248.189 366.739ZM257.354 320.22L256.713 320.491L256.715 320.495L257.354 320.22ZM248.189 306.994L247.707 307.496L247.712 307.501L248.189 306.994ZM234.268 298.178L234.011 298.825L234.014 298.826L234.268 298.178ZM185.544 306.994L186.021 307.501L186.026 307.496L185.544 306.994ZM176.379 320.22L177.018 320.495L177.02 320.491L176.379 320.22ZM176.379 353.514L175.738 353.786L175.74 353.79L176.379 353.514ZM185.544 366.739L185.062 367.241L185.067 367.246L185.544 366.739ZM228.236 363.259L227.977 362.613L227.977 362.613L228.236 363.259ZM205.498 363.259L205.756 362.613L205.756 362.613L205.498 363.259ZM196.449 357.343L195.949 357.827L195.957 357.835L196.449 357.343ZM190.416 348.178L189.77 348.436L189.775 348.449L190.416 348.178ZM190.416 325.44L189.775 325.169L189.772 325.176L190.416 325.44ZM196.449 316.391L196.941 316.883L196.941 316.883L196.449 316.391ZM205.498 310.359L205.239 309.712L205.234 309.714L205.498 310.359ZM228.236 310.359L228.494 309.712L228.494 309.712L228.236 310.359ZM237.284 316.391L236.785 316.876L236.792 316.883L237.284 316.391ZM243.201 325.44L242.555 325.698L242.558 325.707L242.562 325.716L243.201 325.44ZM243.201 348.294L242.56 348.023L242.557 348.03L243.201 348.294ZM237.284 357.343L237.777 357.835L237.784 357.827L237.284 357.343ZM365.746 377.412L365.149 377.77L365.351 378.108H365.746V377.412ZM345.273 343.189L345.87 342.832L345.667 342.493H345.273V343.189ZM397.486 377.412V378.108H397.946L398.126 377.686L397.486 377.412ZM405.528 358.619V357.923H405.069L404.888 358.345L405.528 358.619ZM446.144 358.619L446.783 358.344L446.602 357.923H446.144V358.619ZM454.215 377.412L453.576 377.687L453.757 378.108H454.215V377.412ZM469.993 377.412V378.108H471.07L470.627 377.126L469.993 377.412ZM433.333 296.206L433.968 295.919L433.783 295.509H433.333V296.206ZM418.484 296.206V295.509H418.034L417.85 295.92L418.484 296.206ZM382.458 376.265L381.861 376.623L382.546 377.763L383.092 376.55L382.458 376.265ZM357.735 335.127L357.14 334.765L356.921 335.125L357.138 335.485L357.735 335.127ZM381.407 296.206L382.002 296.567L382.645 295.509H381.407V296.206ZM365.398 296.206V295.509H365L364.798 295.853L365.398 296.206ZM345.432 330.196V330.892H345.83L346.032 330.549L345.432 330.196ZM331.407 330.196H330.711V330.892H331.407V330.196ZM331.407 296.206H332.103V295.509H331.407V296.206ZM316.674 296.206V295.509H315.978V296.206H316.674ZM316.674 330.196V330.892H317.37V330.196H316.674ZM302.436 330.196L301.835 330.548L302.036 330.892H302.436V330.196ZM282.567 296.206L283.168 295.854L282.966 295.509H282.567V296.206ZM266.558 296.206V295.509H265.317L265.964 296.568L266.558 296.206ZM290.283 335.039L290.88 335.397L291.097 335.036L290.877 334.676L290.283 335.039ZM264.818 377.412L264.221 377.054L263.587 378.108H264.818V377.412ZM282.219 377.412V378.108H282.613L282.816 377.771L282.219 377.412ZM302.793 343.189V342.493H302.399L302.196 342.831L302.793 343.189ZM316.674 343.189H317.37V342.493H316.674V343.189ZM316.674 377.412H315.978V378.108H316.674V377.412ZM331.407 377.412V378.108H332.103V377.412H331.407ZM331.407 343.189V342.493H330.711V343.189H331.407ZM441.062 346.786V347.482H442.118L441.701 346.511L441.062 346.786ZM425.798 311.246L426.438 310.972L425.797 309.48L425.158 310.972L425.798 311.246ZM410.591 346.786L409.951 346.512L409.536 347.482H410.591V346.786ZM482.445 296.206V295.509H481.749V296.206H482.445ZM482.445 377.412H481.749V378.108H482.445V377.412ZM497.527 377.412V378.108H498.223V377.412H497.527ZM497.527 353.978V353.282H496.831V353.978H497.527ZM534.302 350.498L534.017 349.863L534.014 349.864L534.302 350.498ZM546.251 340.521L545.665 340.145L545.665 340.145L546.251 340.521ZM546.251 309.663L545.665 310.039L545.665 310.039L546.251 309.663ZM534.302 299.686L534.014 300.319L534.017 300.321L534.302 299.686ZM497.527 341.217H496.831V341.913H497.527V341.217ZM530.125 337.041L530.572 337.575L530.573 337.574L530.125 337.041ZM530.125 313.143L529.679 313.677L529.685 313.682L530.125 313.143ZM497.527 308.967V308.271H496.831V308.967H497.527ZM621.771 377.412H621.075V378.108H621.771V377.412ZM621.771 342.609H622.467V341.913H621.771V342.609ZM636.853 377.412V378.108H637.549V377.412H636.853ZM636.853 296.206H637.549V295.509H636.853V296.206ZM621.771 296.206V295.509H621.075V296.206H621.771ZM621.771 329.732V330.428H622.467V329.732H621.771ZM579.776 329.732H579.08V330.428H579.776V329.732ZM579.776 296.206H580.472V295.509H579.776V296.206ZM564.695 296.206V295.509H563.999V296.206H564.695ZM564.695 377.412H563.999V378.108H564.695V377.412ZM579.776 377.412V378.108H580.472V377.412H579.776ZM579.776 342.609V341.913H579.08V342.609H579.776ZM685.85 296.206V295.509H685.4L685.216 295.92L685.85 296.206ZM700.7 296.206L701.334 295.919L701.149 295.509H700.7V296.206ZM649.307 377.412L648.673 377.127L648.231 378.108H649.307V377.412ZM664.853 377.412V378.108H665.312L665.493 377.686L664.853 377.412ZM672.894 358.619V357.923H672.435L672.254 358.345L672.894 358.619ZM713.51 358.619L714.15 358.344L713.969 357.923H713.51V358.619ZM721.581 377.412L720.942 377.687L721.123 378.108H721.581V377.412ZM737.359 377.412V378.108H738.437L737.993 377.126L737.359 377.412ZM708.428 346.786V347.482H709.484L709.068 346.511L708.428 346.786ZM693.165 311.246L693.804 310.972L693.163 309.48L692.525 310.972L693.165 311.246ZM677.958 346.786L677.318 346.512L676.903 347.482H677.958V346.786ZM792.949 377.412H792.253V378.108H792.949V377.412ZM792.949 354.79H793.645V354.094H792.949V354.79ZM807.798 377.412V378.108H808.494V377.412H807.798ZM807.798 296.206H808.494V295.509H807.798V296.206ZM756.058 299.802L756.346 300.436L756.354 300.432L756.058 299.802ZM744.225 310.011L744.814 310.382L744.816 310.378L744.225 310.011ZM743.993 341.565L743.398 341.927L743.401 341.931L743.993 341.565ZM755.246 351.426L754.947 352.055L754.959 352.06L755.246 351.426ZM757.601 352.383L758.173 352.779L758.687 352.037L757.838 351.729L757.601 352.383ZM740.281 377.412L739.708 377.016L738.953 378.108H740.281V377.412ZM756.174 377.412V378.108H756.546L756.753 377.799L756.174 377.412ZM771.299 354.77L771.318 354.074L770.934 354.064L770.72 354.383L771.299 354.77ZM792.949 342.493V343.189H793.645V342.493H792.949ZM792.949 308.967H793.645V308.271H792.949V308.967ZM760.234 313.259L760.687 313.787L760.688 313.787L760.234 313.259ZM760.002 338.201L759.523 338.706L759.529 338.712L759.536 338.718L760.002 338.201ZM84.5711 485.301H83.875V485.997H84.5711V485.301ZM84.5711 404.094V403.398H83.875V404.094H84.5711ZM144.78 478.805L145.207 479.354L145.209 479.353L144.78 478.805ZM145.592 442.61L145.152 443.149L145.161 443.156L145.592 442.61ZM99.4203 436.461H98.7243V437.157H99.4203V436.461ZM99.4203 416.507V415.811H98.7243V416.507H99.4203ZM147.796 416.507V417.204H148.492V416.507H147.796ZM147.796 404.094H148.492V403.398H147.796V404.094ZM99.4203 473.7H98.7243V474.396H99.4203V473.7ZM99.4203 448.062V447.366H98.7243V448.062H99.4203ZM133.527 470.336L133.943 470.895L133.943 470.895L133.527 470.336ZM169.763 485.301H169.067V485.997H169.763V485.301ZM169.763 404.094V403.398H169.067V404.094H169.763ZM230.668 485.301V485.997H231.364V485.301H230.668ZM230.668 472.656H231.364V471.96H230.668V472.656ZM184.844 472.656H184.148V473.352H184.844V472.656ZM184.844 450.266V449.57H184.148V450.266H184.844ZM224.056 450.266V450.962H224.752V450.266H224.056ZM224.056 437.853H224.752V437.157H224.056V437.853ZM184.844 437.853H184.148V438.549H184.844V437.853ZM184.844 416.739V416.043H184.148V416.739H184.844ZM229.044 416.739V417.436H229.74V416.739H229.044ZM229.044 404.094H229.74V403.398H229.044V404.094ZM253.426 484.141L253.231 484.809L253.242 484.812L253.426 484.141ZM304.238 474.744L303.687 474.319L303.686 474.321L304.238 474.744ZM305.282 451.194L304.705 451.584L304.711 451.592L304.717 451.6L305.282 451.194ZM296.814 444.118L296.519 444.749L296.525 444.751L296.814 444.118ZM294.586 443.208L294.255 442.596L292.875 443.342L294.355 443.864L294.586 443.208ZM295.421 442.726L295.063 442.129L295.057 442.133L295.421 442.726ZM302.498 435.417L301.888 435.082L301.885 435.087L302.498 435.417ZM302.382 415.347L301.795 415.722L301.795 415.722L302.382 415.347ZM295.073 408.503L294.715 409.1L294.726 409.106L295.073 408.503ZM284.517 404.442L284.354 405.119L284.362 405.121L284.37 405.123L284.517 404.442ZM257.022 404.906L257.179 405.585L257.186 405.583L257.022 404.906ZM243.217 409.895L242.897 409.277L242.356 409.557L242.562 410.13L243.217 409.895ZM247.509 421.844L246.854 422.079L247.127 422.837L247.837 422.458L247.509 421.844ZM255.05 418.596L254.83 417.935L254.824 417.937L255.05 418.596ZM263.751 416.507L263.857 417.195L263.865 417.194L263.874 417.193L263.751 416.507ZM281.152 416.855L280.956 417.523L280.956 417.523L281.152 416.855ZM287.417 420.684L286.892 421.141L286.902 421.153L286.913 421.164L287.417 420.684ZM286.141 435.069L285.746 434.495L285.746 434.495L286.141 435.069ZM256.094 437.621V436.925H255.398V437.621H256.094ZM256.094 449.454H255.398V450.15H256.094V449.454ZM285.329 450.73L285.109 451.391L285.109 451.391L285.329 450.73ZM291.245 454.675L291.793 454.246L291.793 454.246L291.245 454.675ZM288.113 470.452L288.49 471.037L288.499 471.031L288.113 470.452ZM256.558 471.844L256.361 472.512L256.371 472.515L256.558 471.844ZM244.377 466.044L244.787 465.481L244.078 464.966L243.736 465.772L244.377 466.044ZM239.505 477.529L238.864 477.257L238.651 477.758L239.087 478.085L239.505 477.529ZM345.837 483.329L346.09 482.681L346.09 482.681L345.837 483.329ZM380.64 483.329L380.386 482.681L380.383 482.682L380.64 483.329ZM394.561 474.628L395.038 475.135L395.038 475.135L394.561 474.628ZM403.726 461.403L404.366 461.675L404.366 461.675L403.726 461.403ZM403.726 428.108L403.085 428.38L403.086 428.384L403.726 428.108ZM394.561 414.883L394.079 415.385L394.084 415.39L394.561 414.883ZM380.64 406.067L380.383 406.714L380.386 406.715L380.64 406.067ZM345.837 406.067L346.09 406.715L346.09 406.715L345.837 406.067ZM331.916 414.883L332.393 415.39L332.398 415.385L331.916 414.883ZM322.751 428.108L323.39 428.384L323.392 428.38L322.751 428.108ZM322.751 461.403L322.11 461.675L322.112 461.679L322.751 461.403ZM331.916 474.628L331.433 475.13L331.439 475.135L331.916 474.628ZM374.607 471.148L374.866 471.794L374.866 471.794L374.607 471.148ZM351.869 471.148L351.611 471.794L351.611 471.794L351.869 471.148ZM342.821 465.232L342.321 465.716L342.328 465.724L342.821 465.232ZM336.788 456.067L336.142 456.325L336.147 456.338L336.788 456.067ZM336.788 433.329L336.147 433.058L336.144 433.065L336.788 433.329ZM342.821 424.28L343.313 424.772L343.313 424.772L342.821 424.28ZM351.869 418.248L351.611 417.601L351.606 417.603L351.869 418.248ZM374.607 418.248L374.866 417.601L374.866 417.601L374.607 418.248ZM383.656 424.28L383.156 424.765L383.164 424.772L383.656 424.28ZM389.572 433.329L388.926 433.587L388.93 433.596L388.933 433.605L389.572 433.329ZM389.572 456.183L388.931 455.912L388.928 455.919L389.572 456.183ZM383.656 465.232L384.148 465.724L384.155 465.716L383.656 465.232ZM423.764 404.094V403.398H423.068V404.094H423.764ZM495.574 404.094H496.27V403.398H495.574V404.094ZM423.764 485.301H423.068V485.997H423.764V485.301ZM438.613 485.301V485.997H439.309V485.301H438.613ZM438.613 416.855V416.159H437.917V416.855H438.613ZM480.724 416.855H481.42V416.159H480.724V416.855ZM480.724 485.301H480.028V485.997H480.724V485.301ZM495.574 485.301V485.997H496.27V485.301H495.574ZM544.69 404.094V403.398H544.24L544.055 403.809L544.69 404.094ZM559.539 404.094L560.174 403.808L559.989 403.398H559.539V404.094ZM508.147 485.301L507.512 485.016L507.071 485.997H508.147V485.301ZM523.692 485.301V485.997H524.152L524.332 485.575L523.692 485.301ZM531.734 466.508V465.812H531.275L531.094 466.234L531.734 466.508ZM572.35 466.508L572.989 466.233L572.808 465.812H572.35V466.508ZM580.421 485.301L579.782 485.576L579.963 485.997H580.421V485.301ZM596.198 485.301V485.997H597.276L596.833 485.015L596.198 485.301ZM567.268 454.675V455.371H568.324L567.907 454.4L567.268 454.675ZM552.004 419.135L552.644 418.86L552.003 417.369L551.364 418.861L552.004 419.135ZM536.797 454.675L536.157 454.401L535.742 455.371H536.797V454.675ZM627.588 483.445L627.331 484.092L627.343 484.096L627.588 483.445ZM663.203 482.981L663.474 483.622L663.474 483.622L663.203 482.981ZM677.124 472.888L677.652 473.342L678.083 472.84L677.604 472.384L677.124 472.888ZM667.379 463.607L667.86 463.103L667.342 462.611L666.863 463.14L667.379 463.607ZM657.519 470.916L657.791 471.557L657.803 471.552L657.519 470.916ZM633.969 471.148L633.71 471.794L633.715 471.796L633.969 471.148ZM624.804 465.232L624.312 465.724L624.319 465.731L624.804 465.232ZM618.771 456.183L618.125 456.441L618.13 456.454L618.771 456.183ZM618.771 433.213L618.13 432.942L618.125 432.954L618.771 433.213ZM624.804 424.164L624.319 423.665L624.312 423.672L624.804 424.164ZM633.969 418.248L633.715 417.599L633.71 417.601L633.969 418.248ZM657.519 418.596L657.235 419.231L657.246 419.236L657.519 418.596ZM667.379 425.672L666.869 426.145L667.346 426.66L667.856 426.179L667.379 425.672ZM677.124 416.507L677.601 417.015L678.082 416.562L677.656 416.058L677.124 416.507ZM663.203 406.415L662.932 407.056L662.94 407.059L663.203 406.415ZM627.704 406.067L627.953 406.717L627.961 406.714L627.704 406.067ZM613.899 414.767L614.376 415.274L614.381 415.269L613.899 414.767ZM604.734 427.992L604.093 427.721L604.093 427.721L604.734 427.992ZM604.734 461.403L604.093 461.675L604.093 461.675L604.734 461.403ZM613.783 474.744L613.296 475.242L613.306 475.251L613.783 474.744ZM748.204 485.301H747.508V485.997H748.204V485.301ZM748.204 450.498H748.9V449.802H748.204V450.498ZM763.285 485.301V485.997H763.981V485.301H763.285ZM763.285 404.094H763.981V403.398H763.285V404.094ZM748.204 404.094V403.398H747.508V404.094H748.204ZM748.204 437.621V438.317H748.9V437.621H748.204ZM706.208 437.621H705.512V438.317H706.208V437.621ZM706.208 404.094H706.904V403.398H706.208V404.094ZM691.127 404.094V403.398H690.431V404.094H691.127ZM691.127 485.301H690.431V485.997H691.127V485.301ZM706.208 485.301V485.997H706.904V485.301H706.208ZM706.208 450.498V449.802H705.512V450.498H706.208ZM806.25 483.329L806.504 482.681L806.504 482.681L806.25 483.329ZM841.053 483.329L840.8 482.681L840.797 482.682L841.053 483.329ZM864.139 428.108L863.499 428.38L863.5 428.384L864.139 428.108ZM854.975 414.883L854.492 415.385L854.497 415.39L854.975 414.883ZM841.053 406.067L840.797 406.714L840.8 406.715L841.053 406.067ZM806.25 406.067L806.504 406.715L806.504 406.715L806.25 406.067ZM792.329 414.883L792.806 415.39L792.811 415.385L792.329 414.883ZM783.165 428.108L783.804 428.384L783.805 428.38L783.165 428.108ZM783.165 461.403L782.524 461.675L782.525 461.679L783.165 461.403ZM792.329 474.628L791.847 475.13L791.852 475.135L792.329 474.628ZM835.021 471.148L835.279 471.794L835.279 471.794L835.021 471.148ZM812.283 471.148L812.024 471.794L812.024 471.794L812.283 471.148ZM803.234 465.232L802.735 465.716L802.742 465.724L803.234 465.232ZM797.202 456.067L796.555 456.325L796.56 456.338L797.202 456.067ZM797.202 433.329L796.56 433.058L796.557 433.065L797.202 433.329ZM803.234 424.28L802.742 423.788L802.742 423.788L803.234 424.28ZM812.283 418.248L812.024 417.601L812.019 417.603L812.283 418.248ZM835.021 418.248L834.762 418.894L834.762 418.894L835.021 418.248ZM844.07 424.28L843.57 424.765L843.577 424.772L844.07 424.28ZM849.986 433.329L849.34 433.587L849.343 433.596L849.347 433.605L849.986 433.329ZM849.986 456.183L849.345 455.912L849.342 455.919L849.986 456.183ZM844.07 465.232L844.562 465.724L844.569 465.716L844.07 465.232ZM904.131 483.445L903.874 484.092L903.885 484.096L904.131 483.445ZM939.746 482.981L940.017 483.622L940.017 483.622L939.746 482.981ZM953.667 472.888L954.195 473.342L954.626 472.84L954.147 472.384L953.667 472.888ZM943.922 463.607L944.402 463.103L943.885 462.611L943.406 463.14L943.922 463.607ZM934.061 470.916L934.334 471.557L934.345 471.552L934.061 470.916ZM910.511 471.148L910.253 471.794L910.258 471.796L910.511 471.148ZM901.347 465.232L900.854 465.724L900.862 465.731L901.347 465.232ZM895.314 456.183L894.668 456.441L894.673 456.454L895.314 456.183ZM895.314 433.213L894.673 432.942L894.668 432.954L895.314 433.213ZM901.347 424.164L900.862 423.665L900.854 423.672L901.347 424.164ZM910.511 418.248L910.258 417.599L910.253 417.601L910.511 418.248ZM934.061 418.596L933.777 419.231L933.789 419.236L934.061 418.596ZM943.922 425.672L943.412 426.145L943.888 426.66L944.399 426.179L943.922 425.672ZM953.667 416.507L954.144 417.015L954.625 416.562L954.199 416.058L953.667 416.507ZM939.746 406.415L939.475 407.056L939.483 407.059L939.746 406.415ZM904.247 406.067L904.496 406.717L904.504 406.714L904.247 406.067ZM890.442 414.767L890.919 415.274L890.924 415.269L890.442 414.767ZM881.277 427.992L880.636 427.721L880.636 427.721L881.277 427.992ZM881.277 461.403L880.636 461.675L880.636 461.675L881.277 461.403ZM890.326 474.744L889.838 475.242L889.849 475.251L890.326 474.744ZM982.911 485.301H982.215V485.997H982.911V485.301ZM982.911 416.855H983.607V416.159H982.911V416.855ZM997.876 485.301V485.997H998.572V485.301H997.876ZM997.876 416.855V416.159H997.18V416.855H997.876ZM1024.79 416.855V417.552H1025.49V416.855H1024.79ZM1024.79 404.094H1025.49V403.398H1024.79V404.094ZM956.112 404.094V403.398H955.416V404.094H956.112ZM956.112 416.855H955.416V417.552H956.112V416.855ZM1037.91 404.094V403.398H1037.22V404.094H1037.91ZM1052.76 404.094H1053.46V403.398H1052.76V404.094ZM1037.91 485.301H1037.22V485.997H1037.91V485.301ZM1096.85 478.341L1097.28 478.881L1097.28 478.881L1096.85 478.341ZM1097.66 438.085L1097.22 438.623L1097.22 438.623L1097.66 438.085ZM1052.76 431.589H1052.07V432.285H1052.76V431.589ZM1052.76 473.7H1052.07V474.396H1052.76V473.7ZM1052.76 443.074V442.378H1052.07V443.074H1052.76ZM1085.71 446.67L1085.29 447.225L1085.3 447.232L1085.71 446.67ZM1085.59 469.64L1085.15 469.105L1085.14 469.111L1085.59 469.64ZM85.2671 377.412V296.206H83.875V377.412H85.2671ZM99.4203 376.716H84.5711V378.108H99.4203V376.716ZM98.7243 308.967V377.412H100.116V308.967H98.7243ZM141.532 308.271H99.4203V309.663H141.532V308.271ZM142.228 377.412V308.967H140.836V377.412H142.228ZM156.381 376.716H141.532V378.108H156.381V376.716ZM155.685 296.206V377.412H157.077V296.206H155.685ZM84.5711 296.902H156.381V295.509H84.5711V296.902ZM216.983 377.876C210.718 377.876 204.966 376.845 199.719 374.792L199.211 376.088C204.637 378.211 210.563 379.268 216.983 379.268V377.876ZM234.011 374.793C228.842 376.846 223.169 377.876 216.983 377.876V379.268C223.326 379.268 229.176 378.211 234.525 376.087L234.011 374.793ZM247.712 366.233C243.836 369.88 239.273 372.734 234.014 374.792L234.522 376.088C239.936 373.97 244.653 371.023 248.666 367.246L247.712 366.233ZM256.713 353.242C254.584 358.26 251.585 362.588 247.712 366.233L248.666 367.246C252.683 363.466 255.792 358.977 257.995 353.786L256.713 353.242ZM259.906 336.809C259.906 342.756 258.839 348.231 256.713 353.242L257.995 353.786C260.2 348.588 261.298 342.927 261.298 336.809H259.906ZM256.715 320.495C258.839 325.427 259.906 330.861 259.906 336.809H261.298C261.298 330.691 260.2 325.067 257.993 319.944L256.715 320.495ZM247.712 307.501C251.585 311.146 254.584 315.474 256.713 320.491L257.995 319.948C255.792 314.757 252.683 310.268 248.666 306.488L247.712 307.501ZM234.014 298.826C239.27 300.882 243.832 303.773 247.707 307.496L248.671 306.492C244.658 302.637 239.939 299.649 234.522 297.529L234.014 298.826ZM216.867 295.741C223.131 295.741 228.843 296.773 234.011 298.825L234.525 297.531C229.175 295.406 223.286 294.349 216.867 294.349V295.741ZM199.719 298.826C204.967 296.772 210.681 295.741 216.867 295.741V294.349C210.523 294.349 204.636 295.407 199.211 297.529L199.719 298.826ZM186.026 307.496C189.902 303.773 194.463 300.882 199.719 298.826L199.211 297.529C193.794 299.649 189.075 302.637 185.062 306.492L186.026 307.496ZM177.02 320.491C179.149 315.474 182.149 311.146 186.021 307.501L185.067 306.488C181.051 310.268 177.941 314.757 175.738 319.948L177.02 320.491ZM173.827 336.809C173.827 330.861 174.894 325.427 177.018 320.495L175.74 319.944C173.533 325.067 172.435 330.691 172.435 336.809H173.827ZM177.02 353.242C174.894 348.231 173.827 342.756 173.827 336.809H172.435C172.435 342.927 173.533 348.588 175.738 353.786L177.02 353.242ZM186.026 366.237C182.149 362.512 179.147 358.181 177.018 353.239L175.74 353.79C177.942 358.902 181.05 363.387 185.062 367.241L186.026 366.237ZM199.719 374.792C194.46 372.734 189.897 369.88 186.021 366.233L185.067 367.246C189.08 371.023 193.797 373.97 199.211 376.088L199.719 374.792ZM216.867 366.043C221.046 366.043 224.924 365.333 228.494 363.905L227.977 362.613C224.586 363.969 220.885 364.651 216.867 364.651V366.043ZM205.239 363.905C208.809 365.333 212.687 366.043 216.867 366.043V364.651C212.848 364.651 209.147 363.969 205.756 362.613L205.239 363.905ZM195.957 357.835C198.578 360.456 201.675 362.48 205.239 363.905L205.756 362.613C202.36 361.254 199.424 359.333 196.941 356.85L195.957 357.835ZM189.775 348.449C191.277 352.006 193.335 355.134 195.949 357.827L196.948 356.858C194.458 354.292 192.495 351.31 191.058 347.907L189.775 348.449ZM187.632 336.809C187.632 340.988 188.342 344.866 189.77 348.436L191.063 347.919C189.706 344.529 189.024 340.828 189.024 336.809H187.632ZM189.772 325.176C188.341 328.674 187.632 332.554 187.632 336.809H189.024C189.024 332.711 189.707 329.012 191.061 325.704L189.772 325.176ZM195.957 315.899C193.338 318.518 191.278 321.61 189.775 325.169L191.058 325.711C192.494 322.309 194.455 319.369 196.941 316.883L195.957 315.899ZM205.234 309.714C201.745 311.142 198.651 313.205 195.957 315.899L196.941 316.883C199.506 314.318 202.445 312.36 205.761 311.003L205.234 309.714ZM216.867 307.574C212.687 307.574 208.809 308.284 205.239 309.712L205.756 311.005C209.147 309.649 212.848 308.967 216.867 308.967V307.574ZM228.494 309.712C224.924 308.284 221.046 307.574 216.867 307.574V308.967C220.885 308.967 224.586 309.649 227.977 311.005L228.494 309.712ZM237.784 315.906C235.162 313.205 232.063 311.14 228.494 309.712L227.977 311.005C231.369 312.362 234.302 314.318 236.785 316.876L237.784 315.906ZM243.847 325.181C242.421 321.617 240.398 318.52 237.776 315.899L236.792 316.883C239.275 319.366 241.196 322.302 242.555 325.698L243.847 325.181ZM246.101 336.809C246.101 332.55 245.351 328.664 243.84 325.164L242.562 325.716C243.989 329.021 244.709 332.715 244.709 336.809H246.101ZM243.842 348.565C245.351 344.99 246.101 341.068 246.101 336.809H244.709C244.709 340.902 243.989 344.637 242.56 348.023L243.842 348.565ZM237.784 357.827C240.398 355.134 242.419 352.042 243.845 348.557L242.557 348.03C241.198 351.351 239.275 354.292 236.785 356.858L237.784 357.827ZM228.494 363.905C232.058 362.48 235.155 360.456 237.776 357.835L236.792 356.85C234.309 359.333 231.373 361.254 227.977 362.613L228.494 363.905ZM366.343 377.055L345.87 342.832L344.675 343.547L365.149 377.77L366.343 377.055ZM381.941 376.716H365.746V378.108H381.941V376.716ZM383.147 376.716H381.941V378.108H383.147V376.716ZM397.486 376.716H383.147V378.108H397.486V376.716ZM404.888 358.345L396.847 377.139L398.126 377.686L406.168 358.893L404.888 358.345ZM446.144 357.923H405.528V359.315H446.144V357.923ZM454.855 377.138L446.783 358.344L445.504 358.893L453.576 377.687L454.855 377.138ZM469.993 376.716H454.215V378.108H469.993V376.716ZM432.699 296.492L469.358 377.699L470.627 377.126L433.968 295.919L432.699 296.492ZM418.484 296.902H433.333V295.509H418.484V296.902ZM383.092 376.55L419.119 296.491L417.85 295.92L381.823 375.979L383.092 376.55ZM357.138 335.485L381.861 376.623L383.054 375.906L358.331 334.768L357.138 335.485ZM380.813 295.844L357.14 334.765L358.329 335.489L382.002 296.567L380.813 295.844ZM365.398 296.902H381.407V295.509H365.398V296.902ZM346.032 330.549L365.998 296.558L364.798 295.853L344.832 329.844L346.032 330.549ZM331.407 330.892H345.432V329.5H331.407V330.892ZM330.711 296.206V330.196H332.103V296.206H330.711ZM316.674 296.902H331.407V295.509H316.674V296.902ZM317.37 330.196V296.206H315.978V330.196H317.37ZM302.436 330.892H316.674V329.5H302.436V330.892ZM281.966 296.557L301.835 330.548L303.037 329.845L283.168 295.854L281.966 296.557ZM266.558 296.902H282.567V295.509H266.558V296.902ZM290.877 334.676L267.152 295.843L265.964 296.568L289.689 335.402L290.877 334.676ZM265.414 377.771L290.88 335.397L289.687 334.68L264.221 377.054L265.414 377.771ZM282.219 376.716H264.818V378.108H282.219V376.716ZM302.196 342.831L281.622 377.054L282.816 377.771L303.389 343.548L302.196 342.831ZM316.674 342.493H302.793V343.886H316.674V342.493ZM317.37 377.412V343.189H315.978V377.412H317.37ZM331.407 376.716H316.674V378.108H331.407V376.716ZM330.711 343.189V377.412H332.103V343.189H330.711ZM345.273 342.493H331.407V343.886H345.273V342.493ZM441.701 346.511L426.438 310.972L425.159 311.521L440.422 347.06L441.701 346.511ZM425.158 310.972L409.951 346.512L411.231 347.06L426.438 311.52L425.158 310.972ZM410.591 347.482H441.062V346.09H410.591V347.482ZM482.445 296.902H515.856V295.509H482.445V296.902ZM483.142 377.412V296.206H481.749V377.412H483.142ZM497.527 376.716H482.445V378.108H497.527V376.716ZM496.831 353.978V377.412H498.223V353.978H496.831ZM515.856 353.282H497.527V354.674H515.856V353.282ZM534.014 349.864C529.022 352.134 522.977 353.282 515.856 353.282V354.674C523.121 354.674 529.373 353.503 534.59 351.132L534.014 349.864ZM545.665 340.145C542.962 344.351 539.089 347.592 534.017 349.863L534.586 351.133C539.878 348.764 543.972 345.354 546.836 340.898L545.665 340.145ZM549.731 325.092C549.731 330.935 548.367 335.943 545.665 340.145L546.836 340.898C549.703 336.438 551.123 331.159 551.123 325.092H549.731ZM545.665 310.039C548.367 314.241 549.731 319.249 549.731 325.092H551.123C551.123 319.025 549.703 313.746 546.836 309.286L545.665 310.039ZM534.017 300.321C539.089 302.592 542.962 305.833 545.665 310.039L546.836 309.286C543.972 304.83 539.878 301.42 534.586 299.051L534.017 300.321ZM515.856 296.902C522.977 296.902 529.022 298.05 534.014 300.319L534.59 299.052C529.373 296.681 523.121 295.509 515.856 295.509V296.902ZM497.527 341.913H515.16V340.521H497.527V341.913ZM515.16 341.913C521.892 341.913 527.07 340.507 530.572 337.575L529.679 336.507C526.53 339.143 521.731 340.521 515.16 340.521V341.913ZM530.573 337.574C534.158 334.559 535.926 330.368 535.926 325.092H534.534C534.534 330.025 532.899 333.799 529.678 336.508L530.573 337.574ZM535.926 325.092C535.926 319.743 534.16 315.545 530.566 312.604L529.685 313.682C532.897 316.309 534.534 320.077 534.534 325.092H535.926ZM530.572 312.609C527.07 309.677 521.892 308.271 515.16 308.271V309.663C521.731 309.663 526.53 311.041 529.679 313.677L530.572 312.609ZM515.16 308.271H497.527V309.663H515.16V308.271ZM496.831 308.967V341.217H498.223V308.967H496.831ZM622.467 377.412V342.609H621.075V377.412H622.467ZM636.853 376.716H621.771V378.108H636.853V376.716ZM636.157 296.206V377.412H637.549V296.206H636.157ZM621.771 296.902H636.853V295.509H621.771V296.902ZM622.467 329.732V296.206H621.075V329.732H622.467ZM579.776 330.428H621.771V329.036H579.776V330.428ZM579.08 296.206V329.732H580.472V296.206H579.08ZM564.695 296.902H579.776V295.509H564.695V296.902ZM565.391 377.412V296.206H563.999V377.412H565.391ZM579.776 376.716H564.695V378.108H579.776V376.716ZM579.08 342.609V377.412H580.472V342.609H579.08ZM621.771 341.913H579.776V343.305H621.771V341.913ZM685.85 296.902H700.7V295.509H685.85V296.902ZM649.942 377.698L686.485 296.491L685.216 295.92L648.673 377.127L649.942 377.698ZM664.853 376.716H649.307V378.108H664.853V376.716ZM672.254 358.345L664.213 377.139L665.493 377.686L673.534 358.893L672.254 358.345ZM713.51 357.923H672.894V359.315H713.51V357.923ZM722.221 377.138L714.15 358.344L712.87 358.893L720.942 377.687L722.221 377.138ZM737.359 376.716H721.581V378.108H737.359V376.716ZM700.065 296.492L736.724 377.699L737.993 377.126L701.334 295.919L700.065 296.492ZM709.068 346.511L693.804 310.972L692.525 311.521L707.788 347.06L709.068 346.511ZM692.525 310.972L677.318 346.512L678.597 347.06L693.805 311.52L692.525 310.972ZM677.958 347.482H708.428V346.09H677.958V347.482ZM793.645 377.412V354.79H792.253V377.412H793.645ZM807.798 376.716H792.949V378.108H807.798V376.716ZM807.102 296.206V377.412H808.494V296.206H807.102ZM774.04 296.902H807.798V295.509H774.04V296.902ZM756.354 300.432C761.348 298.086 767.237 296.902 774.04 296.902V295.509C767.076 295.509 760.977 296.722 755.762 299.172L756.354 300.432ZM744.816 310.378C747.524 306.016 751.359 302.702 756.346 300.435L755.77 299.168C750.549 301.542 746.495 305.034 743.634 309.644L744.816 310.378ZM740.745 326.02C740.745 319.86 742.113 314.659 744.814 310.382L743.637 309.639C740.769 314.179 739.353 319.651 739.353 326.02H740.745ZM744.588 341.204C742.036 337.001 740.745 331.95 740.745 326.02H739.353C739.353 332.155 740.691 337.467 743.398 341.927L744.588 341.204ZM755.545 350.798C750.784 348.53 747.139 345.33 744.585 341.199L743.401 341.931C746.106 346.308 749.963 349.682 754.947 352.055L755.545 350.798ZM757.838 351.729C757.048 351.442 756.279 351.13 755.533 350.792L754.959 352.06C755.738 352.413 756.54 352.739 757.364 353.038L757.838 351.729ZM740.853 377.808L758.173 352.779L757.028 351.987L739.708 377.016L740.853 377.808ZM756.174 376.716H740.281V378.108H756.174V376.716ZM770.72 354.383L755.595 377.026L756.753 377.799L771.878 355.156L770.72 354.383ZM772.879 354.094C772.353 354.094 771.832 354.088 771.318 354.074L771.281 355.466C771.808 355.48 772.341 355.486 772.879 355.486V354.094ZM792.949 354.094H772.879V355.486H792.949V354.094ZM793.645 342.493V308.967H792.253V342.493H793.645ZM792.949 308.271H774.504V309.663H792.949V308.271ZM774.504 308.271C768.218 308.271 763.276 309.724 759.78 312.731L760.688 313.787C763.844 311.071 768.415 309.663 774.504 309.663V308.271ZM759.781 312.73C756.335 315.684 754.666 320.082 754.666 325.788H756.058C756.058 320.357 757.637 316.402 760.687 313.787L759.781 312.73ZM754.666 325.788C754.666 331.264 756.258 335.604 759.523 338.706L760.482 337.696C757.56 334.92 756.058 330.985 756.058 325.788H754.666ZM759.536 338.718C762.881 341.736 767.715 343.189 773.924 343.189V341.797C767.912 341.797 763.466 340.389 760.469 337.684L759.536 338.718ZM773.924 343.189H792.949V341.797H773.924V343.189ZM85.2671 485.301V404.094H83.875V485.301H85.2671ZM121.114 484.605H84.5711V485.997H121.114V484.605ZM144.353 478.255C138.951 482.457 131.235 484.605 121.114 484.605V485.997C131.411 485.997 139.473 483.814 145.207 479.354L144.353 478.255ZM152.553 460.243C152.553 468.022 149.808 473.996 144.352 478.256L145.209 479.353C151.044 474.797 153.945 468.396 153.945 460.243H152.553ZM145.161 443.156C150.066 447.02 152.553 452.677 152.553 460.243H153.945C153.945 452.341 151.328 446.242 146.023 442.063L145.161 443.156ZM123.434 437.157C133.096 437.157 140.298 439.191 145.152 443.149L146.032 442.07C140.832 437.83 133.262 435.765 123.434 435.765V437.157ZM99.4203 437.157H123.434V435.765H99.4203V437.157ZM98.7243 416.507V436.461H100.116V416.507H98.7243ZM147.796 415.811H99.4203V417.204H147.796V415.811ZM147.1 404.094V416.507H148.492V404.094H147.1ZM84.5711 404.79H147.796V403.398H84.5711V404.79ZM99.4203 474.396H120.302V473.004H99.4203V474.396ZM98.7243 448.062V473.7H100.116V448.062H98.7243ZM120.302 447.366H99.4203V448.758H120.302V447.366ZM138.748 460.591C138.748 456.229 137.189 452.866 134.016 450.626C130.887 448.417 126.279 447.366 120.302 447.366V448.758C126.158 448.758 130.425 449.795 133.213 451.763C135.956 453.699 137.356 456.601 137.356 460.591H138.748ZM133.943 470.895C137.16 468.502 138.748 465.032 138.748 460.591H137.356C137.356 464.658 135.926 467.685 133.112 469.777L133.943 470.895ZM120.302 474.396C126.176 474.396 130.757 473.263 133.943 470.895L133.112 469.777C130.265 471.894 126.029 473.004 120.302 473.004V474.396ZM170.459 485.301V404.094H169.067V485.301H170.459ZM230.668 484.605H169.763V485.997H230.668V484.605ZM229.972 472.656V485.301H231.364V472.656H229.972ZM184.844 473.352H230.668V471.96H184.844V473.352ZM184.148 450.266V472.656H185.54V450.266H184.148ZM224.056 449.57H184.844V450.962H224.056V449.57ZM223.36 437.853V450.266H224.752V437.853H223.36ZM184.844 438.549H224.056V437.157H184.844V438.549ZM184.148 416.739V437.853H185.54V416.739H184.148ZM229.044 416.043H184.844V417.436H229.044V416.043ZM228.348 404.094V416.739H229.74V404.094H228.348ZM169.763 404.79H229.044V403.398H169.763V404.79ZM271.872 485.765C265.274 485.765 259.188 484.998 253.61 483.47L253.242 484.812C258.955 486.378 265.166 487.157 271.872 487.157V485.765ZM291.691 482.68C286.381 484.728 279.782 485.765 271.872 485.765V487.157C279.893 487.157 286.674 486.107 292.192 483.978L291.691 482.68ZM303.686 474.321C300.998 477.83 297.016 480.625 291.691 482.68L292.192 483.978C297.693 481.856 301.91 478.928 304.791 475.168L303.686 474.321ZM307.835 462.215C307.835 466.7 306.456 470.728 303.687 474.319L304.79 475.169C307.744 471.337 309.227 467.011 309.227 462.215H307.835ZM304.717 451.6C306.784 454.479 307.835 458.005 307.835 462.215H309.227C309.227 457.764 308.112 453.942 305.848 450.788L304.717 451.6ZM296.525 444.751C299.971 446.325 302.692 448.602 304.705 451.584L305.859 450.805C303.696 447.6 300.771 445.159 297.103 443.485L296.525 444.751ZM294.355 443.864C295.093 444.125 295.814 444.42 296.519 444.749L297.108 443.487C296.362 443.139 295.598 442.827 294.818 442.551L294.355 443.864ZM295.057 442.133C294.794 442.294 294.527 442.449 294.255 442.596L294.917 443.82C295.212 443.661 295.502 443.494 295.786 443.318L295.057 442.133ZM301.885 435.087C300.324 437.987 298.056 440.333 295.063 442.129L295.78 443.323C298.975 441.406 301.424 438.88 303.111 435.747L301.885 435.087ZM304.354 425.324C304.354 428.845 303.531 432.094 301.888 435.082L303.108 435.753C304.868 432.553 305.746 429.073 305.746 425.324H304.354ZM301.795 415.722C303.491 418.376 304.354 421.567 304.354 425.324H305.746C305.746 421.347 304.83 417.887 302.969 414.973L301.795 415.722ZM294.726 409.106C297.731 410.834 300.082 413.04 301.795 415.722L302.969 414.973C301.125 412.087 298.603 409.729 295.42 407.899L294.726 409.106ZM284.37 405.123C288.248 405.959 291.694 407.287 294.715 409.1L295.432 407.906C292.265 406.006 288.673 404.627 284.663 403.762L284.37 405.123ZM272.336 403.746C276.538 403.746 280.544 404.205 284.354 405.119L284.679 403.766C280.755 402.824 276.64 402.354 272.336 402.354V403.746ZM257.186 405.583C262.239 404.358 267.288 403.746 272.336 403.746V402.354C267.174 402.354 262.015 402.98 256.858 404.23L257.186 405.583ZM243.538 410.513C247.657 408.377 252.203 406.733 257.179 405.585L256.866 404.228C251.787 405.4 247.13 407.082 242.897 409.277L243.538 410.513ZM248.165 421.609L243.872 409.66L242.562 410.13L246.854 422.079L248.165 421.609ZM254.824 417.937C252.085 418.876 249.538 419.973 247.182 421.23L247.837 422.458C250.122 421.24 252.601 420.171 255.276 419.254L254.824 417.937ZM263.645 415.82C260.591 416.289 257.653 416.994 254.83 417.935L255.27 419.256C258.016 418.341 260.878 417.654 263.857 417.195L263.645 415.82ZM272.452 414.999C269.622 414.999 266.681 415.274 263.628 415.822L263.874 417.193C266.853 416.658 269.712 416.391 272.452 416.391V414.999ZM281.349 416.188C278.646 415.393 275.679 414.999 272.452 414.999V416.391C275.566 416.391 278.399 416.771 280.956 417.523L281.349 416.188ZM287.942 420.227C286.295 418.333 284.085 416.992 281.349 416.188L280.956 417.523C283.479 418.265 285.445 419.477 286.892 421.141L287.942 420.227ZM290.549 427.528C290.549 424.529 289.694 422.061 287.92 420.203L286.913 421.164C288.388 422.71 289.157 424.805 289.157 427.528H290.549ZM286.535 435.643C289.221 433.796 290.549 431.054 290.549 427.528H289.157C289.157 430.654 288.01 432.939 285.746 434.495L286.535 435.643ZM275.236 438.317C280.095 438.317 283.894 437.459 286.535 435.643L285.746 434.495C283.438 436.082 279.967 436.925 275.236 436.925V438.317ZM256.094 438.317H275.236V436.925H256.094V438.317ZM256.79 449.454V437.621H255.398V449.454H256.79ZM276.048 448.758H256.094V450.15H276.048V448.758ZM285.549 450.07C282.906 449.189 279.733 448.758 276.048 448.758V450.15C279.632 450.15 282.647 450.57 285.109 451.391L285.549 450.07ZM291.793 454.246C290.302 452.34 288.205 450.956 285.549 450.07L285.109 451.391C287.556 452.207 289.404 453.452 290.697 455.104L291.793 454.246ZM294.029 461.171C294.029 458.485 293.294 456.163 291.793 454.246L290.697 455.104C291.981 456.744 292.637 458.753 292.637 461.171H294.029ZM288.499 471.031C292.154 468.594 294.029 465.293 294.029 461.171H292.637C292.637 464.784 291.032 467.669 287.727 469.873L288.499 471.031ZM271.988 474.512C279.303 474.512 284.841 473.389 288.49 471.037L287.736 469.867C284.424 472.001 279.212 473.12 271.988 473.12V474.512ZM256.371 472.515C261.158 473.848 266.364 474.512 271.988 474.512V473.12C266.474 473.12 261.394 472.469 256.745 471.174L256.371 472.515ZM243.968 466.607C247.445 469.135 251.58 471.101 256.361 472.512L256.755 471.177C252.101 469.803 248.115 467.902 244.787 465.481L243.968 466.607ZM240.146 477.8L245.018 466.315L243.736 465.772L238.864 477.257L240.146 477.8ZM253.621 483.473C248.113 481.867 243.553 479.695 239.922 476.972L239.087 478.085C242.881 480.931 247.602 483.167 253.231 484.809L253.621 483.473ZM363.354 485.765C357.09 485.765 351.338 484.734 346.09 482.681L345.583 483.977C351.009 486.1 356.935 487.157 363.354 487.157V485.765ZM380.383 482.682C375.214 484.735 369.54 485.765 363.354 485.765V487.157C369.697 487.157 375.547 486.1 380.897 483.976L380.383 482.682ZM394.084 474.121C390.208 477.769 385.645 480.623 380.386 482.681L380.893 483.977C386.308 481.859 391.025 478.912 395.038 475.135L394.084 474.121ZM403.085 461.131C400.956 466.149 397.956 470.477 394.084 474.121L395.038 475.135C399.054 471.355 402.164 466.866 404.366 461.675L403.085 461.131ZM406.278 444.698C406.278 450.645 405.211 456.12 403.085 461.131L404.366 461.675C406.572 456.477 407.67 450.815 407.67 444.698H406.278ZM403.086 428.384C405.211 433.315 406.278 438.75 406.278 444.698H407.67C407.67 438.58 406.572 432.956 404.365 427.833L403.086 428.384ZM394.084 415.39C397.956 419.035 400.956 423.363 403.085 428.38L404.366 427.837C402.164 422.645 399.054 418.157 395.038 414.376L394.084 415.39ZM380.386 406.715C385.642 408.771 390.203 411.662 394.079 415.385L395.043 414.381C391.03 410.525 386.311 407.538 380.893 405.418L380.386 406.715ZM363.238 403.63C369.503 403.63 375.215 404.661 380.383 406.714L380.897 405.42C375.546 403.295 369.657 402.238 363.238 402.238V403.63ZM346.09 406.715C351.339 404.661 357.052 403.63 363.238 403.63V402.238C356.895 402.238 351.008 403.296 345.583 405.418L346.09 406.715ZM332.398 415.385C336.273 411.662 340.835 408.771 346.09 406.715L345.583 405.418C340.166 407.538 335.447 410.525 331.433 414.381L332.398 415.385ZM323.392 428.38C325.52 423.363 328.52 419.035 332.393 415.39L331.439 414.376C327.422 418.157 324.312 422.645 322.11 427.837L323.392 428.38ZM320.199 444.698C320.199 438.75 321.266 433.315 323.39 428.384L322.112 427.833C319.905 432.956 318.807 438.58 318.807 444.698H320.199ZM323.392 461.131C321.266 456.12 320.199 450.645 320.199 444.698H318.807C318.807 450.815 319.905 456.477 322.11 461.675L323.392 461.131ZM332.398 474.126C328.52 470.401 325.519 466.07 323.39 461.128L322.112 461.679C324.314 466.791 327.422 471.276 331.433 475.13L332.398 474.126ZM346.09 482.681C340.832 480.623 336.269 477.769 332.393 474.121L331.439 475.135C335.451 478.912 340.169 481.859 345.583 483.977L346.09 482.681ZM363.238 473.932C367.417 473.932 371.296 473.222 374.866 471.794L374.349 470.502C370.958 471.858 367.257 472.54 363.238 472.54V473.932ZM351.611 471.794C355.181 473.222 359.059 473.932 363.238 473.932V472.54C359.219 472.54 355.518 471.858 352.128 470.502L351.611 471.794ZM342.328 465.724C344.95 468.345 348.046 470.369 351.611 471.794L352.128 470.502C348.732 469.143 345.796 467.222 343.313 464.739L342.328 465.724ZM336.147 456.338C337.649 459.895 339.707 463.023 342.321 465.716L343.32 464.747C340.83 462.181 338.866 459.199 337.429 455.796L336.147 456.338ZM334.004 444.698C334.004 448.877 334.714 452.755 336.142 456.325L337.434 455.808C336.078 452.418 335.396 448.717 335.396 444.698H334.004ZM336.144 433.065C334.713 436.563 334.004 440.443 334.004 444.698H335.396C335.396 440.6 336.079 436.901 337.432 433.592L336.144 433.065ZM342.328 423.788C339.71 426.407 337.65 429.499 336.147 433.058L337.429 433.6C338.865 430.198 340.827 427.258 343.313 424.772L342.328 423.788ZM351.606 417.603C348.116 419.031 345.022 421.094 342.328 423.788L343.313 424.772C345.878 422.207 348.816 420.249 352.133 418.892L351.606 417.603ZM363.238 415.463C359.059 415.463 355.181 416.173 351.611 417.601L352.128 418.894C355.518 417.538 359.219 416.855 363.238 416.855V415.463ZM374.866 417.601C371.296 416.173 367.417 415.463 363.238 415.463V416.855C367.257 416.855 370.958 417.538 374.349 418.894L374.866 417.601ZM384.155 423.795C381.534 421.094 378.435 419.029 374.866 417.601L374.349 418.894C377.74 420.251 380.674 422.207 383.156 424.765L384.155 423.795ZM390.219 433.07C388.793 429.506 386.77 426.409 384.148 423.788L383.164 424.772C385.647 427.255 387.568 430.191 388.926 433.587L390.219 433.07ZM392.473 444.698C392.473 440.439 391.723 436.553 390.211 433.053L388.933 433.605C390.361 436.91 391.081 440.604 391.081 444.698H392.473ZM390.214 456.454C391.723 452.879 392.473 448.957 392.473 444.698H391.081C391.081 448.791 390.361 452.526 388.931 455.912L390.214 456.454ZM384.155 465.716C386.77 463.023 388.791 459.931 390.217 456.446L388.928 455.919C387.57 459.24 385.647 462.181 383.156 464.747L384.155 465.716ZM374.866 471.794C378.43 470.369 381.527 468.345 384.148 465.724L383.164 464.739C380.681 467.222 377.745 469.143 374.349 470.502L374.866 471.794ZM423.764 404.79H495.574V403.398H423.764V404.79ZM424.46 485.301V404.094H423.068V485.301H424.46ZM438.613 484.605H423.764V485.997H438.613V484.605ZM437.917 416.855V485.301H439.309V416.855H437.917ZM480.724 416.159H438.613V417.552H480.724V416.159ZM481.42 485.301V416.855H480.028V485.301H481.42ZM495.574 484.605H480.724V485.997H495.574V484.605ZM494.878 404.094V485.301H496.27V404.094H494.878ZM544.69 404.79H559.539V403.398H544.69V404.79ZM508.782 485.587L545.325 404.38L544.055 403.809L507.512 485.016L508.782 485.587ZM523.692 484.605H508.147V485.997H523.692V484.605ZM531.094 466.234L523.052 485.027L524.332 485.575L532.374 466.781L531.094 466.234ZM572.35 465.812H531.734V467.204H572.35V465.812ZM581.061 485.027L572.989 466.233L571.71 466.782L579.782 485.576L581.061 485.027ZM596.198 484.605H580.421V485.997H596.198V484.605ZM558.905 404.381L595.564 485.588L596.833 485.015L560.174 403.808L558.905 404.381ZM567.907 454.4L552.644 418.86L551.365 419.41L566.628 454.949L567.907 454.4ZM551.364 418.861L536.157 454.401L537.437 454.948L552.644 419.409L551.364 418.861ZM536.797 455.371H567.268V453.979H536.797V455.371ZM644.874 485.765C638.763 485.765 633.085 484.773 627.834 482.794L627.343 484.096C632.764 486.139 638.61 487.157 644.874 487.157V485.765ZM662.932 482.34C657.537 484.619 651.521 485.765 644.874 485.765V487.157C651.683 487.157 657.887 485.983 663.474 483.622L662.932 482.34ZM676.596 472.434C672.879 476.759 668.327 480.06 662.932 482.34L663.474 483.622C669.062 481.261 673.791 477.834 677.652 473.342L676.596 472.434ZM666.899 464.111L676.644 473.392L677.604 472.384L667.86 463.103L666.899 464.111ZM657.803 471.552C661.534 469.884 664.898 467.387 667.896 464.074L666.863 463.14C663.983 466.324 660.773 468.7 657.235 470.281L657.803 471.552ZM645.686 473.932C650.026 473.932 654.064 473.143 657.791 471.557L657.246 470.276C653.704 471.783 649.853 472.54 645.686 472.54V473.932ZM633.715 471.796C637.362 473.223 641.355 473.932 645.686 473.932V472.54C641.509 472.54 637.69 471.857 634.222 470.5L633.715 471.796ZM624.319 465.731C627.015 468.348 630.148 470.369 633.71 471.794L634.227 470.502C630.829 469.143 627.852 467.22 625.289 464.732L624.319 465.731ZM618.13 456.454C619.633 460.013 621.693 463.105 624.312 465.724L625.296 464.739C622.81 462.254 620.849 459.314 619.413 455.912L618.13 456.454ZM615.987 444.698C615.987 448.953 616.697 452.87 618.125 456.441L619.418 455.924C618.062 452.535 617.379 448.796 617.379 444.698H615.987ZM618.125 432.954C616.697 436.526 615.987 440.443 615.987 444.698H617.379C617.379 440.6 618.062 436.861 619.418 433.471L618.125 432.954ZM624.312 423.672C621.693 426.291 619.633 429.383 618.13 432.942L619.413 433.484C620.849 430.082 622.81 427.142 625.296 424.656L624.312 423.672ZM633.71 417.601C630.148 419.026 627.015 421.048 624.319 423.665L625.289 424.664C627.852 422.176 630.829 420.253 634.227 418.894L633.71 417.601ZM645.686 415.463C641.355 415.463 637.362 416.172 633.715 417.599L634.222 418.896C637.69 417.539 641.509 416.855 645.686 416.855V415.463ZM657.803 417.96C654.072 416.293 650.03 415.463 645.686 415.463V416.855C649.848 416.855 653.695 417.65 657.235 419.231L657.803 417.96ZM667.89 425.199C664.891 421.963 661.525 419.544 657.791 417.955L657.246 419.236C660.783 420.741 663.99 423.04 666.869 426.145L667.89 425.199ZM676.647 416L666.903 425.165L667.856 426.179L677.601 417.015L676.647 416ZM662.94 407.059C668.328 409.26 672.876 412.558 676.593 416.957L677.656 416.058C673.793 411.486 669.06 408.055 663.466 405.77L662.94 407.059ZM644.99 403.63C651.559 403.63 657.536 404.776 662.932 407.056L663.474 405.773C657.888 403.413 651.723 402.238 644.99 402.238V403.63ZM627.961 406.714C633.13 404.661 638.804 403.63 644.99 403.63V402.238C638.647 402.238 632.796 403.296 627.447 405.42L627.961 406.714ZM614.381 415.269C618.256 411.546 622.778 408.695 627.953 406.717L627.456 405.416C622.112 407.46 617.43 410.409 613.417 414.265L614.381 415.269ZM605.375 428.264C607.504 423.247 610.504 418.919 614.376 415.274L613.422 414.26C609.406 418.04 606.296 422.529 604.093 427.721L605.375 428.264ZM602.182 444.698C602.182 438.75 603.249 433.275 605.375 428.264L604.093 427.721C601.888 432.918 600.79 438.58 600.79 444.698H602.182ZM605.375 461.131C603.249 456.12 602.182 450.645 602.182 444.698H600.79C600.79 450.815 601.888 456.477 604.093 461.675L605.375 461.131ZM614.27 474.247C610.47 470.523 607.506 466.153 605.375 461.131L604.093 461.675C606.294 466.862 609.362 471.386 613.296 475.241L614.27 474.247ZM627.845 482.798C622.664 480.741 618.138 477.887 614.26 474.237L613.306 475.251C617.317 479.026 621.994 481.973 627.331 484.092L627.845 482.798ZM748.9 485.301V450.498H747.508V485.301H748.9ZM763.285 484.605H748.204V485.997H763.285V484.605ZM762.589 404.094V485.301H763.981V404.094H762.589ZM748.204 404.79H763.285V403.398H748.204V404.79ZM748.9 437.621V404.094H747.508V437.621H748.9ZM706.208 438.317H748.204V436.925H706.208V438.317ZM705.512 404.094V437.621H706.904V404.094H705.512ZM691.127 404.79H706.208V403.398H691.127V404.79ZM691.823 485.301V404.094H690.431V485.301H691.823ZM706.208 484.605H691.127V485.997H706.208V484.605ZM705.512 450.498V485.301H706.904V450.498H705.512ZM748.204 449.802H706.208V451.194H748.204V449.802ZM823.768 485.765C817.504 485.765 811.752 484.734 806.504 482.681L805.997 483.977C811.422 486.1 817.349 487.157 823.768 487.157V485.765ZM840.797 482.682C835.627 484.735 829.954 485.765 823.768 485.765V487.157C830.111 487.157 835.961 486.1 841.31 483.976L840.797 482.682ZM854.497 474.121C850.622 477.769 846.058 480.623 840.8 482.681L841.307 483.977C846.721 481.859 851.439 478.912 855.452 475.135L854.497 474.121ZM863.499 461.131C861.37 466.149 858.37 470.477 854.497 474.121L855.452 475.135C859.468 471.355 862.578 466.866 864.78 461.675L863.499 461.131ZM866.692 444.698C866.692 450.645 865.624 456.12 863.499 461.131L864.78 461.675C866.985 456.477 868.084 450.815 868.084 444.698H866.692ZM863.5 428.384C865.624 433.315 866.692 438.75 866.692 444.698H868.084C868.084 438.58 866.985 432.956 864.779 427.833L863.5 428.384ZM854.497 415.39C858.37 419.035 861.37 423.363 863.499 428.38L864.78 427.837C862.578 422.645 859.468 418.157 855.452 414.376L854.497 415.39ZM840.8 406.715C846.055 408.771 850.617 411.662 854.492 415.385L855.457 414.381C851.443 410.525 846.724 407.538 841.307 405.418L840.8 406.715ZM823.652 403.63C829.916 403.63 835.628 404.661 840.797 406.714L841.31 405.42C835.96 403.295 830.071 402.238 823.652 402.238V403.63ZM806.504 406.715C811.752 404.661 817.466 403.63 823.652 403.63V402.238C817.309 402.238 811.421 403.296 805.997 405.418L806.504 406.715ZM792.811 415.385C796.687 411.662 801.249 408.771 806.504 406.715L805.997 405.418C800.579 407.538 795.86 410.525 791.847 414.381L792.811 415.385ZM783.805 428.38C785.934 423.363 788.934 419.035 792.806 415.39L791.852 414.376C787.836 418.157 784.726 422.645 782.524 427.837L783.805 428.38ZM780.612 444.698C780.612 438.75 781.679 433.315 783.804 428.384L782.525 427.833C780.319 432.956 779.22 438.58 779.22 444.698H780.612ZM783.805 461.131C781.679 456.12 780.612 450.645 780.612 444.698H779.22C779.22 450.815 780.319 456.477 782.524 461.675L783.805 461.131ZM792.811 474.126C788.934 470.401 785.933 466.07 783.804 461.128L782.525 461.679C784.727 466.791 787.836 471.276 791.847 475.13L792.811 474.126ZM806.504 482.681C801.246 480.623 796.682 477.769 792.806 474.121L791.852 475.135C795.865 478.912 800.582 481.859 805.997 483.977L806.504 482.681ZM823.652 473.932C827.831 473.932 831.709 473.222 835.279 471.794L834.762 470.502C831.372 471.858 827.671 472.54 823.652 472.54V473.932ZM812.024 471.794C815.594 473.222 819.473 473.932 823.652 473.932V472.54C819.633 472.54 815.932 471.858 812.541 470.502L812.024 471.794ZM802.742 465.724C805.363 468.345 808.46 470.369 812.024 471.794L812.541 470.502C809.145 469.143 806.209 467.222 803.726 464.739L802.742 465.724ZM796.56 456.338C798.062 459.895 800.121 463.023 802.735 465.716L803.734 464.747C801.243 462.181 799.28 459.199 797.843 455.796L796.56 456.338ZM794.417 444.698C794.417 448.877 795.127 452.755 796.555 456.325L797.848 455.808C796.492 452.418 795.81 448.717 795.81 444.698H794.417ZM796.557 433.065C795.127 436.563 794.417 440.443 794.417 444.698H795.81C795.81 440.6 796.492 436.901 797.846 433.592L796.557 433.065ZM802.742 423.788C800.123 426.407 798.063 429.499 796.56 433.058L797.843 433.6C799.279 430.198 801.241 427.258 803.726 424.772L802.742 423.788ZM812.019 417.603C808.53 419.031 805.436 421.094 802.742 423.788L803.726 424.772C806.291 422.207 809.23 420.249 812.546 418.892L812.019 417.603ZM823.652 415.463C819.473 415.463 815.594 416.173 812.024 417.601L812.541 418.894C815.932 417.538 819.633 416.855 823.652 416.855V415.463ZM835.279 417.601C831.709 416.173 827.831 415.463 823.652 415.463V416.855C827.671 416.855 831.372 417.538 834.762 418.894L835.279 417.601ZM844.569 423.795C841.947 421.094 838.848 419.029 835.279 417.601L834.762 418.894C838.154 420.251 841.088 422.207 843.57 424.765L844.569 423.795ZM850.632 433.07C849.207 429.506 847.183 426.409 844.562 423.788L843.577 424.772C846.06 427.255 847.981 430.191 849.34 433.587L850.632 433.07ZM852.886 444.698C852.886 440.439 852.137 436.553 850.625 433.053L849.347 433.605C850.774 436.91 851.494 440.604 851.494 444.698H852.886ZM850.627 456.454C852.137 452.879 852.886 448.957 852.886 444.698H851.494C851.494 448.791 850.775 452.526 849.345 455.912L850.627 456.454ZM844.569 465.716C847.183 463.023 849.205 459.931 850.63 456.446L849.342 455.919C847.983 459.24 846.06 462.181 843.57 464.747L844.569 465.716ZM835.279 471.794C838.844 470.369 841.94 468.345 844.562 465.724L843.577 464.739C841.094 467.222 838.159 469.143 834.762 470.502L835.279 471.794ZM921.416 485.765C915.306 485.765 909.628 484.773 904.376 482.794L903.885 484.096C909.307 486.139 915.152 487.157 921.416 487.157V485.765ZM939.475 482.34C934.08 484.619 928.064 485.765 921.416 485.765V487.157C928.226 487.157 934.43 485.983 940.017 483.622L939.475 482.34ZM953.139 472.434C949.421 476.759 944.87 480.06 939.475 482.34L940.017 483.622C945.604 481.261 950.333 477.834 954.195 473.342L953.139 472.434ZM943.442 464.111L953.187 473.392L954.147 472.384L944.402 463.103L943.442 464.111ZM934.345 471.552C938.077 469.884 941.441 467.387 944.438 464.074L943.406 463.14C940.525 466.324 937.316 468.7 933.777 470.281L934.345 471.552ZM922.228 473.932C926.568 473.932 930.606 473.143 934.334 471.557L933.789 470.276C930.247 471.783 926.396 472.54 922.228 472.54V473.932ZM910.258 471.796C913.905 473.223 917.898 473.932 922.228 473.932V472.54C918.052 472.54 914.233 471.857 910.765 470.5L910.258 471.796ZM900.862 465.731C903.558 468.348 906.69 470.369 910.253 471.794L910.77 470.502C907.372 469.143 904.394 467.22 901.831 464.732L900.862 465.731ZM894.673 456.454C896.176 460.013 898.236 463.105 900.854 465.724L901.839 464.739C899.353 462.254 897.392 459.314 895.955 455.912L894.673 456.454ZM892.53 444.698C892.53 448.953 893.239 452.87 894.668 456.441L895.96 455.924C894.605 452.535 893.922 448.796 893.922 444.698H892.53ZM894.668 432.954C893.239 436.526 892.53 440.443 892.53 444.698H893.922C893.922 440.6 894.605 436.861 895.96 433.471L894.668 432.954ZM900.854 423.672C898.236 426.291 896.176 429.383 894.673 432.942L895.955 433.484C897.392 430.082 899.353 427.142 901.839 424.656L900.854 423.672ZM910.253 417.601C906.69 419.026 903.558 421.048 900.862 423.665L901.831 424.664C904.394 422.176 907.372 420.253 910.77 418.894L910.253 417.601ZM922.228 415.463C917.898 415.463 913.905 416.172 910.258 417.599L910.765 418.896C914.233 417.539 918.052 416.855 922.228 416.855V415.463ZM934.345 417.96C930.615 416.293 926.573 415.463 922.228 415.463V416.855C926.391 416.855 930.238 417.65 933.777 419.231L934.345 417.96ZM944.433 425.199C941.434 421.963 938.067 419.544 934.334 417.955L933.789 419.236C937.325 420.741 940.533 423.04 943.412 426.145L944.433 425.199ZM953.19 416L943.445 425.165L944.399 426.179L954.144 417.015L953.19 416ZM939.483 407.059C944.871 409.26 949.419 412.558 953.135 416.957L954.199 416.058C950.336 411.486 945.603 408.055 940.009 405.77L939.483 407.059ZM921.532 403.63C928.101 403.63 934.079 404.776 939.475 407.056L940.017 405.773C934.431 403.413 928.266 402.238 921.532 402.238V403.63ZM904.504 406.714C909.673 404.661 915.346 403.63 921.532 403.63V402.238C915.189 402.238 909.339 403.296 903.99 405.42L904.504 406.714ZM890.924 415.269C894.799 411.546 899.321 408.695 904.496 406.717L903.998 405.416C898.655 407.46 893.973 410.409 889.959 414.265L890.924 415.269ZM881.918 428.264C884.046 423.247 887.046 418.919 890.919 415.274L889.965 414.26C885.948 418.04 882.838 422.529 880.636 427.721L881.918 428.264ZM878.725 444.698C878.725 438.75 879.792 433.275 881.918 428.264L880.636 427.721C878.431 432.918 877.333 438.58 877.333 444.698H878.725ZM881.918 461.131C879.792 456.12 878.725 450.645 878.725 444.698H877.333C877.333 450.815 878.431 456.477 880.636 461.675L881.918 461.131ZM890.813 474.247C887.013 470.523 884.048 466.153 881.918 461.131L880.636 461.675C882.837 466.862 885.904 471.386 889.839 475.241L890.813 474.247ZM904.388 482.798C899.207 480.741 894.68 477.887 890.803 474.237L889.849 475.251C893.86 479.026 898.537 481.973 903.874 484.092L904.388 482.798ZM983.607 485.301V416.855H982.215V485.301H983.607ZM997.876 484.605H982.911V485.997H997.876V484.605ZM997.18 416.855V485.301H998.572V416.855H997.18ZM1024.79 416.159H997.876V417.552H1024.79V416.159ZM1024.09 404.094V416.855H1025.49V404.094H1024.09ZM956.112 404.79H1024.79V403.398H956.112V404.79ZM956.808 416.855V404.094H955.416V416.855H956.808ZM982.911 416.159H956.112V417.552H982.911V416.159ZM1037.91 404.79H1052.76V403.398H1037.91V404.79ZM1038.61 485.301V404.094H1037.22V485.301H1038.61ZM1072.83 484.605H1037.91V485.997H1072.83V484.605ZM1096.41 477.8C1090.85 482.307 1083.02 484.605 1072.83 484.605V485.997C1083.22 485.997 1091.4 483.656 1097.28 478.881L1096.41 477.8ZM1104.85 457.575C1104.85 466.542 1102.01 473.244 1096.41 477.801L1097.28 478.881C1103.28 474.002 1106.24 466.86 1106.24 457.575H1104.85ZM1097.22 438.623C1102.27 442.787 1104.85 449.06 1104.85 457.575H1106.24C1106.24 448.766 1103.56 442.046 1098.1 437.548L1097.22 438.623ZM1075.27 432.285C1084.84 432.285 1092.12 434.43 1097.22 438.623L1098.1 437.548C1092.67 433.079 1085.03 430.893 1075.27 430.893V432.285ZM1052.76 432.285H1075.27V430.893H1052.76V432.285ZM1052.07 404.094V431.589H1053.46V404.094H1052.07ZM1052.76 474.396H1072.14V473.004H1052.76V474.396ZM1052.07 443.074V473.7H1053.46V443.074H1052.07ZM1072.14 442.378H1052.76V443.77H1072.14V442.378ZM1086.13 446.115C1082.79 443.591 1078.1 442.378 1072.14 442.378V443.77C1077.93 443.77 1082.28 444.954 1085.29 447.225L1086.13 446.115ZM1091.16 457.807C1091.16 452.554 1089.52 448.597 1086.12 446.108L1085.3 447.232C1088.24 449.383 1089.77 452.851 1089.77 457.807H1091.16ZM1086.04 470.175C1089.48 467.306 1091.16 463.144 1091.16 457.807H1089.77C1089.77 462.833 1088.2 466.56 1085.15 469.105L1086.04 470.175ZM1072.14 474.396C1078.04 474.396 1082.71 473.019 1086.04 470.169L1085.14 469.111C1082.14 471.674 1077.83 473.004 1072.14 473.004V474.396Z" fill="#EF5A5C" mask="url(#path-2-outside-1_110_3453)"></path></svg> 